<?xml version="1.0" encoding="UTF-8"?>
<svg version="1.1" xmlns="http://www.w3.org/2000/svg" width="316" height="316">
<path d="M0 0 C1.1088707 -0.01058945 1.1088707 -0.01058945 2.24014282 -0.02139282 C32.87971321 -0.24769162 32.87971321 -0.24769162 45.9765625 3.203125 C47.13236816 3.49316406 47.13236816 3.49316406 48.31152344 3.7890625 C66.9233336 8.55792489 84.28683095 16.09037324 99.9765625 27.203125 C100.98847656 27.91082031 102.00039062 28.61851563 103.04296875 29.34765625 C125.97744657 45.94300852 143.31323704 67.4666961 154.9765625 93.203125 C155.25483887 93.81623535 155.53311523 94.4293457 155.81982422 95.06103516 C159.12401649 102.48499884 161.62713642 109.99303243 163.7265625 117.828125 C163.92531982 118.56716064 164.12407715 119.30619629 164.32885742 120.06762695 C167.51015813 132.5623798 168.38636124 144.81300226 168.3515625 157.640625 C168.35068634 158.43203888 168.34981018 159.22345276 168.34890747 160.03884888 C168.19022471 203.62169921 150.39826232 242.2924942 119.984375 273.3046875 C107.0466106 286.01565609 91.51134048 295.87710408 74.9765625 303.203125 C74.36925293 303.47705078 73.76194336 303.75097656 73.13623047 304.03320312 C65.7050658 307.3430323 58.19520682 309.85140746 50.3515625 311.953125 C49.61252686 312.15188232 48.87349121 312.35063965 48.11206055 312.55541992 C35.6173077 315.73672063 23.36668524 316.61292374 10.5390625 316.578125 C9.74764862 316.57724884 8.95623474 316.57637268 8.14083862 316.57546997 C-18.76396184 316.47751108 -43.40711965 310.20863786 -67.0234375 297.203125 C-68.07789062 296.63851563 -69.13234375 296.07390625 -70.21875 295.4921875 C-99.005722 279.48272265 -121.75699551 253.1453918 -135.0234375 223.203125 C-135.29736328 222.59581543 -135.57128906 221.98850586 -135.85351562 221.36279297 C-139.1633448 213.9316283 -141.67171996 206.42176932 -143.7734375 198.578125 C-143.97219482 197.83908936 -144.17095215 197.10005371 -144.37573242 196.33862305 C-147.55703313 183.8438702 -148.43323624 171.59324774 -148.3984375 158.765625 C-148.39756134 157.97421112 -148.39668518 157.18279724 -148.39578247 156.36740112 C-148.29782358 129.46260066 -142.02895036 104.81944285 -129.0234375 81.203125 C-128.45882812 80.14867188 -127.89421875 79.09421875 -127.3125 78.0078125 C-107.62643147 42.6098583 -72.86196547 16.45493809 -34.16259766 5.38476562 C-22.83793369 2.38643703 -11.75660366 0.07508858 0 0 Z " fill="#000000" transform="translate(148.0234375,-0.203125)"/>
<path d="M0 0 C85.12801484 0 85.12801484 0 106 18 C122.47110044 37.5282365 124.66039939 59.2913212 123 84 C120.85817888 100.46346499 113.45586292 117.41586563 100.46875 128.078125 C71.30220601 150.19881847 35.46584743 145 0 145 C0 97.15 0 49.3 0 0 Z " fill="#FCFCFC" transform="translate(83,85)"/>
<path d="M0 0 C25.84615385 0 25.84615385 0 35 8.25 C45.18622688 19.65360521 43.59390298 35.70556094 43.17919922 49.96435547 C42.64215728 59.06187517 39.65204118 67.56155647 33 74 C22.55750464 82.14514638 14.06074498 81 0 81 C0 54.27 0 27.54 0 0 Z " fill="#050505" transform="translate(122,116)"/>
<path d="M0 0 C6.2846206 3.7734297 11.0126954 9.57406644 13.1875 16.57421875 C14.94829402 24.32485672 12.44585032 30.9900691 8.33984375 37.5546875 C4.68477014 42.29915631 0.41109382 44.97877346 -5.375 46.5 C-13.83694144 47.5473289 -20.2674721 46.08475209 -27.0625 40.8125 C-32.21067784 36.18492441 -35.08627833 29.79142702 -35.6875 22.9375 C-35.59127136 16.41800973 -33.11624942 10.60782824 -29 5.625 C-20.60296362 -1.17260088 -10.55663575 -4.70796919 0 0 Z " fill="#86BD26" transform="translate(250.375,185.5)"/>
<path d="M0 0 C6.2846206 3.7734297 11.0126954 9.57406644 13.1875 16.57421875 C14.94829402 24.32485672 12.44585032 30.9900691 8.33984375 37.5546875 C4.68477014 42.29915631 0.41109382 44.97877346 -5.375 46.5 C-12.74488608 47.41216593 -19.01660623 46.75426735 -25.1328125 42.1875 C-26.58260801 41.00069065 -27.98404304 39.75525384 -29.375 38.5 C-27.89 38.005 -27.89 38.005 -26.375 37.5 C-23.6875 39.3125 -23.6875 39.3125 -21.375 41.5 C-21.375 42.16 -21.375 42.82 -21.375 43.5 C-18.68606733 43.41228454 -16.00014692 43.30532075 -13.3125 43.1875 C-12.56033203 43.16494141 -11.80816406 43.14238281 -11.03320312 43.11914062 C-4.85716387 42.82504352 -0.09063754 41.55507705 4.9375 37.75 C7.1193964 34.8408048 7.81372068 32.01554373 8.625 28.5 C9.285 28.5 9.945 28.5 10.625 28.5 C10.29452304 22.09558452 9.81367163 17.18415378 6.625 11.5 C6.625 10.18 6.625 8.86 6.625 7.5 C5.635 7.83 4.645 8.16 3.625 8.5 C3.5425 7.88125 3.46 7.2625 3.375 6.625 C2.81918495 4.35214021 2.81918495 4.35214021 0.75 3.3125 C-7.3569054 0.21280088 -15.13865297 1.2718095 -23.375 3.5 C-23.375 4.16 -23.375 4.82 -23.375 5.5 C-25.355 6.49 -25.355 6.49 -27.375 7.5 C-27.25 5.75 -27.25 5.75 -26.375 3.5 C-18.90528163 -2.18348137 -8.85224304 -3.94785692 0 0 Z " fill="#87AA4C" transform="translate(250.375,185.5)"/>
<path d="M0 0 C4.23182408 2.75988527 6.32025815 4.69325951 7.5 9.6875 C8.32527466 15.06796715 7.43823746 19.80021841 6 25 C5.01 25.33 4.02 25.66 3 26 C3.11859375 25.17757812 3.2371875 24.35515625 3.359375 23.5078125 C4.17844603 16.41465741 4.07333949 11.47847585 0.91015625 5.0234375 C0 3 0 3 0 0 Z " fill="#0B1704" transform="translate(259,191)"/>
<path d="M0 0 C0.66 0 1.32 0 2 0 C1.43635247 3.38188516 0.52265312 5.95469377 -1 9 C-2.59856539 14.91469194 -2.70028156 20.43066927 0 26 C-0.66 26.33 -1.32 26.66 -2 27 C-5.35040547 19.18238723 -6.18240328 13.56721535 -3.0625 5.5625 C-1.20744681 1.20744681 -1.20744681 1.20744681 0 0 Z " fill="#7C9B49" transform="translate(220,193)"/>
<path d="M0 0 C2.19117105 3.28675658 2.09652576 4.23549534 2 8 C2.33 8.66 2.66 9.32 3 10 C2.195625 10.78375 1.39125 11.5675 0.5625 12.375 C-1.98690417 14.71982856 -1.98690417 14.71982856 -3 17 C-3.99 17 -4.98 17 -6 17 C-4.14506608 11.28062041 -2.06896109 5.64444725 0 0 Z " fill="#1B1B1B" transform="translate(202,181)"/>
<path d="M0 0 C1.18239258 0.01353516 1.18239258 0.01353516 2.38867188 0.02734375 C4.32174666 0.05077496 6.2546638 0.08664162 8.1875 0.125 C8.5175 0.785 8.8475 1.445 9.1875 2.125 C8.1975 2.07859375 7.2075 2.0321875 6.1875 1.984375 C-1.50679253 1.73504096 -7.09385597 1.99044983 -13.8125 6.125 C-14.8025 6.125 -15.7925 6.125 -16.8125 6.125 C-17.1425 4.805 -17.4725 3.485 -17.8125 2.125 C-16.4925 2.125 -15.1725 2.125 -13.8125 2.125 C-13.08675781 1.79757813 -12.36101562 1.47015625 -11.61328125 1.1328125 C-7.70752795 -0.27260501 -4.11351668 -0.08964915 0 0 Z " fill="#102204" transform="translate(238.8125,182.875)"/>
<path d="M0 0 C0 4.53850662 -2.5336296 7.3004444 -5 11 C-7.625 11.6875 -7.625 11.6875 -10 12 C-9.67 11.01 -9.34 10.02 -9 9 C-8.835 8.34 -8.67 7.68 -8.5 7 C-8.07797562 5.31190249 -7.55025247 3.6507574 -7 2 C-6.34 2.66 -5.68 3.32 -5 4 C-4.01 3.67 -3.02 3.34 -2 3 C-2 2.34 -2 1.68 -2 1 C-1.34 0.67 -0.68 0.34 0 0 Z " fill="#84B533" transform="translate(229,188)"/>
<path d="M0 0 C1 2 2 4 3 6 C2.34 6 1.68 6 1 6 C-1.31742209 8.19857993 -3.51681721 10.42018065 -5.5625 12.875 C-6.2740625 13.431875 -6.2740625 13.431875 -7 14 C-9.1875 13.6875 -9.1875 13.6875 -11 13 C-10.278125 12.46375 -9.55625 11.9275 -8.8125 11.375 C-4.94844417 8.11201952 -1.63068118 4.89204354 0 0 Z " fill="#0E1C08" transform="translate(261,217)"/>
<path d="M0 0 C0.33 0.99 0.66 1.98 1 3 C-3.69255272 7.14690705 -6.99179856 10.01985612 -13.55078125 9.9765625 C-14.79214844 9.86054688 -16.03351563 9.74453125 -17.3125 9.625 C-18.56675781 9.51414063 -19.82101563 9.40328125 -21.11328125 9.2890625 C-22.06589844 9.19367188 -23.01851562 9.09828125 -24 9 C-24 8.67 -24 8.34 -24 8 C-23.14277344 7.96261719 -22.28554687 7.92523438 -21.40234375 7.88671875 C-10.58856552 7.31196644 -10.58856552 7.31196644 -1.5625 1.8125 C-1.046875 1.214375 -0.53125 0.61625 0 0 Z " fill="#89AE4A" transform="translate(257,221)"/>
<path d="M0 0 C5.89014345 0.34647903 8.09459574 1.66066194 12 6 C12.99 6.33 13.98 6.66 15 7 C15.6875 9.0625 15.6875 9.0625 16 11 C14.68 11 13.36 11 12 11 C11.34 9.02 10.68 7.04 10 5 C9.21625 4.855625 8.4325 4.71125 7.625 4.5625 C5 4 5 4 3 3 C3 2.34 3 1.68 3 1 C2.01 0.67 1.02 0.34 0 0 Z " fill="#86B733" transform="translate(242,186)"/>
<path d="M0 0 C0.66 0 1.32 0 2 0 C2 0.66 2 1.32 2 2 C5.465 1.505 5.465 1.505 9 1 C5.4912812 4.09592835 2.50802601 5.74194623 -2 7 C-2 5.35 -2 3.7 -2 2 C-1.34 2 -0.68 2 0 2 C0 1.34 0 0.68 0 0 Z " fill="#EBEBEB" transform="translate(168,216)"/>
<path d="M0 0 C0.33 0 0.66 0 1 0 C1.13277344 0.67546875 1.26554688 1.3509375 1.40234375 2.046875 C1.57894531 2.93890625 1.75554687 3.8309375 1.9375 4.75 C2.11152344 5.63171875 2.28554687 6.5134375 2.46484375 7.421875 C2.9468129 9.9581007 2.9468129 9.9581007 3.69140625 12.203125 C3.79324219 12.79609375 3.89507812 13.3890625 4 14 C3.34 14.66 2.68 15.32 2 16 C1.34 15.67 0.68 15.34 0 15 C-0.44921875 11.875 -0.44921875 11.875 -0.6875 8 C-0.77386719 6.72125 -0.86023438 5.4425 -0.94921875 4.125 C-0.96597656 3.09375 -0.98273438 2.0625 -1 1 C-0.67 0.67 -0.34 0.34 0 0 Z " fill="#081404" transform="translate(214,205)"/>
<path d="M0 0 C0.33 0.99 0.66 1.98 1 3 C-1.60328053 6.64459275 -3.70048197 9.40758592 -8 11 C-8.66 10.34 -9.32 9.68 -10 9 C-9.52949219 8.68546875 -9.05898437 8.3709375 -8.57421875 8.046875 C-5.11997567 5.67252986 -2.27221496 3.60881199 0 0 Z " fill="#191919" transform="translate(158,182)"/>
<path d="M0 0 C1.03125 0.78375 2.0625 1.5675 3.125 2.375 C6.28098738 4.64396852 9.21815519 5.98535871 13 7 C12.67 7.66 12.34 8.32 12 9 C10.68 9 9.36 9 8 9 C8 8.34 8 7.68 8 7 C6.68 7 5.36 7 4 7 C1.27475835 4.98130248 0.71293214 3.22485192 0 0 Z " fill="#0A1A02" transform="translate(221,224)"/>
<path d="M0 0 C2.31 0.66 4.62 1.32 7 2 C7 2.66 7 3.32 7 4 C11.29 4 15.58 4 20 4 C20 4.33 20 4.66 20 5 C17.22754986 5.13487595 14.46162912 5.23400807 11.6875 5.3125 C10.50897461 5.3753418 10.50897461 5.3753418 9.30664062 5.43945312 C7.09663625 5.48647449 5.15851089 5.48367587 3 5 C0.95703125 2.48046875 0.95703125 2.48046875 0 0 Z " fill="#88B732" transform="translate(226,224)"/>
<path d="M0 0 C-1.33333333 3.33333333 -2.66666667 6.66666667 -4 10 C-4.99 10 -5.98 10 -7 10 C-6.67506385 6.4257023 -6.36129314 4.44287547 -4.0625 1.625 C-2 0 -2 0 0 0 Z " fill="#0B1805" transform="translate(221,191)"/>
<path d="M0 0 C1.98567708 0.26041667 3.97135417 0.52083333 5.95703125 0.78125 C8.15471706 1.053233 8.15471706 1.053233 11 1 C9.625 2.5 9.625 2.5 8 4 C7.34 4 6.68 4 6 4 C5.67 4.66 5.34 5.32 5 6 C3.02 4.68 1.04 3.36 -1 2 C-0.67 1.34 -0.34 0.68 0 0 Z " fill="#0A1704" transform="translate(250,184)"/>
<path d="M0 0 C2.375 -0.125 2.375 -0.125 5 0 C7.6855594 2.6855594 8.06049974 5.37621328 9 9 C8.01 9.495 8.01 9.495 7 10 C6.401875 9.0925 5.80375 8.185 5.1875 7.25 C3.51893234 4.77098519 1.82063145 2.36682089 0 0 Z " fill="#E6E6E6" transform="translate(154,122)"/>
<path d="M0 0 C5.875 3.625 5.875 3.625 7 7 C3.37673261 8.2077558 2.35853631 7.54311128 -1 6 C-0.67 4.02 -0.34 2.04 0 0 Z " fill="#E4E4E4" transform="translate(183,99)"/>
<path d="M0 0 C0.66 0 1.32 0 2 0 C1.43635247 3.38188516 0.52265312 5.95469377 -1 9 C-1.37668344 10.65740715 -1.72057545 12.32345271 -2 14 C-2.33 14 -2.66 14 -3 14 C-3.57293869 4.26004228 -3.57293869 4.26004228 0 0 Z " fill="#8BAE50" transform="translate(220,193)"/>
<path d="M0 0 C-0.99 0.66 -1.98 1.32 -3 2 C-3.33 2.99 -3.66 3.98 -4 5 C-6.375 5.625 -6.375 5.625 -9 6 C-9.66 5.34 -10.32 4.68 -11 4 C-9.73760288 3.13341385 -8.46472499 2.28207941 -7.1875 1.4375 C-6.47980469 0.96183594 -5.77210938 0.48617187 -5.04296875 -0.00390625 C-3 -1 -3 -1 0 0 Z " fill="#E9E9E9" transform="translate(158,190)"/>
<path d="M0 0 C-1.75 3.875 -1.75 3.875 -4 5 C-4.33 4.34 -4.66 3.68 -5 3 C-6.89533342 2.53476937 -6.89533342 2.53476937 -9.0625 2.375 C-10.361875 2.25125 -11.66125 2.1275 -13 2 C-13 1.67 -13 1.34 -13 1 C-11.20843648 0.83222817 -9.4167455 0.66581706 -7.625 0.5 C-6.62726563 0.4071875 -5.62953125 0.314375 -4.6015625 0.21875 C-2 0 -2 0 0 0 Z " fill="#041300" transform="translate(247,231)"/>
<path d="M0 0 C2.13562754 2.13562754 2.63318342 3.06546739 3 6 C2.34 6.66 1.68 7.32 1 8 C1 7.34 1 6.68 1 6 C-0.98 6.99 -0.98 6.99 -3 8 C-2.690625 7.236875 -2.38125 6.47375 -2.0625 5.6875 C-1.32106407 3.81210323 -0.63771783 1.91315348 0 0 Z " fill="#E2E2E2" transform="translate(161,179)"/>
<path d="M0 0 C1.04005702 3.38018531 1.08004482 6.4780279 1 10 C0.01 9.67 -0.98 9.34 -2 9 C-1.125 1.125 -1.125 1.125 0 0 Z " fill="#07050E" transform="translate(268,194)"/>
<path d="M0 0 C4.875 4.75 4.875 4.75 6 7 C4.35 7 2.7 7 1 7 C0.67 4.69 0.34 2.38 0 0 Z " fill="#DEDEDE" transform="translate(190,106)"/>
<path d="M0 0 C2.9375 1.25 2.9375 1.25 6 3 C6.875 5.1875 6.875 5.1875 7 7 C6.34 7 5.68 7 5 7 C5 6.34 5 5.68 5 5 C4.360625 4.731875 3.72125 4.46375 3.0625 4.1875 C1 3 1 3 0 0 Z " fill="#81A548" transform="translate(248,185)"/>
<path d="M0 0 C-1.32 1.32 -2.64 2.64 -4 4 C-4.33 3.67 -4.66 3.34 -5 3 C-5.66 3.66 -6.32 4.32 -7 5 C-6.625 2.5625 -6.625 2.5625 -6 0 C-3.50907189 -1.24546405 -2.58919267 -0.7767578 0 0 Z " fill="#F2F2F2" transform="translate(197,114)"/>
<path d="M0 0 C0.99 0.33 1.98 0.66 3 1 C2.67 2.65 2.34 4.3 2 6 C1.01 5.34 0.02 4.68 -1 4 C-0.67 2.68 -0.34 1.36 0 0 Z " fill="#08110E" transform="translate(222,184)"/>
<path d="M0 0 C0.99 0 1.98 0 3 0 C3 1.65 3 3.3 3 5 C2.01 5.495 2.01 5.495 1 6 C0.34 4.35 -0.32 2.7 -1 1 C-0.67 0.67 -0.34 0.34 0 0 Z " fill="#101010" transform="translate(194,200)"/>
</svg>
