<?xml version="1.0" encoding="UTF-8"?>
<svg version="1.1" xmlns="http://www.w3.org/2000/svg" width="200" height="200">
<path d="M0 0 C1.70736328 0.49306641 1.70736328 0.49306641 3.44921875 0.99609375 C29.03171121 9.27531024 49.4361517 27.23736338 62.00927734 50.89941406 C73.61283454 73.84983841 76.45491386 102.29932482 68.69335938 126.97509766 C59.50062121 153.82177737 41.36669178 175.25751191 15.97412109 188.05419922 C10.79095977 190.53745014 5.51522071 192.40726922 0 194 C-1.08667969 194.31839844 -2.17335938 194.63679687 -3.29296875 194.96484375 C-19.97847266 199.0560916 -39.51256324 198.83083853 -56 194 C-57.70736328 193.50693359 -57.70736328 193.50693359 -59.44921875 193.00390625 C-85.51897582 184.56699719 -105.8527175 166.18834613 -118.53515625 142.08203125 C-125.43222647 127.46530445 -128.38789721 113.30064762 -128.3125 97.1875 C-128.30758545 95.94790527 -128.3026709 94.70831055 -128.29760742 93.43115234 C-128.18777818 84.87573631 -127.63305611 77.18699228 -125 69 C-124.67128906 67.88625 -124.34257813 66.7725 -124.00390625 65.625 C-115.71968981 39.94106254 -97.77242761 19.48732093 -74 7 C-51.73898124 -4.17464304 -24.03831982 -7.04325622 0 0 Z " fill="#FDFDFD" transform="translate(128,3)"/>
<path d="M0 0 C3.47609534 1.49346271 5.73290945 3.47974419 8.40136719 6.14257812 C9.2619574 6.99686401 10.12254761 7.8511499 11.00921631 8.73132324 C11.92914368 9.65529907 12.84907104 10.5792749 13.796875 11.53125 C14.75493637 12.48796371 15.71329443 13.4443804 16.67193604 14.4005127 C18.67567264 16.40130563 20.67575889 18.40565949 22.67333984 20.41259766 C25.2379383 22.98862107 27.81145211 25.55552099 30.38773727 28.11985016 C32.36612446 30.0910246 34.339741 32.06691997 36.3119278 34.04429626 C37.7207719 35.45512771 39.13365318 36.86192389 40.54656982 38.26867676 C41.39455139 39.12296265 42.24253296 39.97724854 43.11621094 40.85742188 C43.8680365 41.61083862 44.61986206 42.36425537 45.39447021 43.14050293 C47 45 47 45 47 47 C37.91794506 48.61861927 27.89691412 50.15618789 19.80224609 44.93896484 C13.07659095 39.48551122 7.39841512 32.72757036 2 26 C-1.46590147 27.44238475 -3.18989696 29.19305233 -5.484375 32.1328125 C-17.31399422 46.23768341 -17.31399422 46.23768341 -26.5234375 47.1875 C-32.39567161 47.3180133 -38.19316455 46.8650366 -44 46 C-43.40904541 45.31164062 -43.40904541 45.31164062 -42.80615234 44.609375 C-39.47100721 40.72292186 -39.47100721 40.72292186 -36.1640625 36.8125 C-35.65617187 36.214375 -35.14828125 35.61625 -34.625 35 C-34.12226562 34.401875 -33.61953125 33.80375 -33.1015625 33.1875 C-31.29517031 31.30724047 -29.46498427 29.65051577 -27.48828125 27.95703125 C-22.44597331 23.59765703 -17.75196843 18.90258793 -13.05200195 14.18237305 C-11.54427904 12.66921334 -10.03118241 11.16157115 -8.51757812 9.65429688 C-7.55436608 8.69042526 -6.5914636 7.72624416 -5.62890625 6.76171875 C-4.76338135 5.89506592 -3.89785645 5.02841309 -3.00610352 4.13549805 C-0.9632226 2.16515239 -0.9632226 2.16515239 0 0 Z " fill="#7CC692" transform="translate(97,26)"/>
<path d="M0 0 C30.69 0 61.38 0 93 0 C93 4.95 93 9.9 93 15 C62.31 15 31.62 15 0 15 C0 10.05 0 5.1 0 0 Z " fill="#10414D" transform="translate(52,148)"/>
<path d="M0 0 C30.69 0 61.38 0 93 0 C93 4.95 93 9.9 93 15 C62.31 15 31.62 15 0 15 C0 10.05 0 5.1 0 0 Z " fill="#10424D" transform="translate(52,118)"/>
<path d="M0 0 C30.69 0 61.38 0 93 0 C93 4.95 93 9.9 93 15 C62.31 15 31.62 15 0 15 C0 10.05 0 5.1 0 0 Z " fill="#14434E" transform="translate(52,88)"/>
<path d="M0 0 C0.99 0.33 1.98 0.66 3 1 C2.38125 1.2475 1.7625 1.495 1.125 1.75 C-1.10885006 2.79762941 -1.10885006 2.79762941 -1.859375 4.796875 C-3.29282088 7.56558553 -5.14036158 9.33217801 -7.375 11.5 C-8.14585938 12.2528125 -8.91671875 13.005625 -9.7109375 13.78125 C-10.46632812 14.5134375 -11.22171875 15.245625 -12 16 C-12.69351563 16.7115625 -13.38703125 17.423125 -14.1015625 18.15625 C-17.85377166 21.80037083 -20.09872108 22.2432045 -25.19921875 22.1953125 C-26.40771484 22.18886719 -27.61621094 22.18242188 -28.86132812 22.17578125 C-30.7552832 22.15064453 -30.7552832 22.15064453 -32.6875 22.125 C-33.96173828 22.11597656 -35.23597656 22.10695313 -36.54882812 22.09765625 C-39.69940627 22.07405641 -42.84960983 22.04113194 -46 22 C-45.67 20.35 -45.34 18.7 -45 17 C-44.360625 16.896875 -43.72125 16.79375 -43.0625 16.6875 C-42.0415625 16.3471875 -42.0415625 16.3471875 -41 16 C-40.67 15.01 -40.34 14.02 -40 13 C-39.34 13 -38.68 13 -38 13 C-37.67 11.68 -37.34 10.36 -37 9 C-35.35 8.67 -33.7 8.34 -32 8 C-32.89301656 9.06486855 -33.7895947 10.12675041 -34.6875 11.1875 C-35.18636719 11.77917969 -35.68523438 12.37085938 -36.19921875 12.98046875 C-38.37313444 15.41846096 -40.67494842 17.70663567 -43 20 C-34.30997088 21.5374303 -24.69625677 23.02014913 -16.94775391 18.03710938 C-10.62747001 12.6621806 -5.17997997 6.4653028 0 0 Z " fill="#DAF1DF" transform="translate(97,51)"/>
<path d="M0 0 C2.9375 0.8125 2.9375 0.8125 6 2 C6.33 2.99 6.66 3.98 7 5 C9.95887459 5.08069658 12.9155659 5.14034665 15.875 5.1875 C16.71675781 5.21263672 17.55851562 5.23777344 18.42578125 5.26367188 C19.23144531 5.27333984 20.03710938 5.28300781 20.8671875 5.29296875 C21.61081543 5.3086792 22.35444336 5.32438965 23.12060547 5.34057617 C23.74080566 5.22818604 24.36100586 5.1157959 25 5 C25.66 4.01 26.32 3.02 27 2 C28.37562854 3.28965176 29.70766393 4.62689293 31 6 C31 6.66 31 7.32 31 8 C27.14662572 8.20460792 23.29465789 8.32806124 19.4375 8.4375 C17.80844727 8.52547852 17.80844727 8.52547852 16.14648438 8.61523438 C8.18113268 8.78470994 8.18113268 8.78470994 4.66064453 6.44580078 C2.90398827 4.7139298 1.3834849 3.04049357 0 1 C0 0.67 0 0.34 0 0 Z " fill="#9CCBAB" transform="translate(113,65)"/>
<path d="M0 0 C0.99 0.33 1.98 0.66 3 1 C0.29097947 4.75369526 -2.1621659 7.62456264 -6.82763672 8.57763672 C-10.05520064 8.68774226 -13.21292435 8.61164622 -16.4375 8.4375 C-17.55060547 8.40591797 -18.66371094 8.37433594 -19.81054688 8.34179688 C-22.54312072 8.25970238 -25.27015941 8.14495011 -28 8 C-26.35 6.02 -24.7 4.04 -23 2 C-22.34 2.66 -21.68 3.32 -21 4 C-21.66 4 -22.32 4 -23 4 C-23 4.66 -23 5.32 -23 6 C-13.45481104 7.0006671 -13.45481104 7.0006671 -4.484375 4.62890625 C-2.92008927 3.15643729 -1.45012542 1.58502081 0 0 Z " fill="#86C199" transform="translate(81,64)"/>
<path d="M0 0 C0.66 0.66 1.32 1.32 2 2 C-0.42826206 4.49764097 -2.81385571 6.85471665 -5.5625 9 C-8.12758972 11.104689 -10.01420997 13.35227996 -12 16 C-12.99 15.67 -13.98 15.34 -15 15 C-10.39863498 9.46398272 -5.53601728 4.60136502 0 0 Z " fill="#87C49C" transform="translate(74,50)"/>
<path d="M0 0 C0.99 0.33 1.98 0.66 3 1 C1.21427748 2.83947337 -0.57802449 4.67157741 -2.375 6.5 C-2.88289063 7.02464844 -3.39078125 7.54929687 -3.9140625 8.08984375 C-5.23832604 9.43153181 -6.61605865 10.71995815 -8 12 C-8.66 12 -9.32 12 -10 12 C-10.33 12.66 -10.66 13.32 -11 14 C-10.67 12.35 -10.34 10.7 -10 9 C-9.360625 8.896875 -8.72125 8.79375 -8.0625 8.6875 C-7.0415625 8.3471875 -7.0415625 8.3471875 -6 8 C-5.67 7.01 -5.34 6.02 -5 5 C-4.34 5 -3.68 5 -3 5 C-2.87625 4.360625 -2.7525 3.72125 -2.625 3.0625 C-2.41875 2.381875 -2.2125 1.70125 -2 1 C-1.34 0.67 -0.68 0.34 0 0 Z " fill="#E2F7EB" transform="translate(62,59)"/>
<path d="M0 0 C0.66 0.66 1.32 1.32 2 2 C1.8125 4.0625 1.8125 4.0625 1 6 C0.01 6.33 -0.98 6.66 -2 7 C-2.66 6.67 -3.32 6.34 -4 6 C-4.226875 6.61875 -4.45375 7.2375 -4.6875 7.875 C-6.37929835 10.61410209 -7.99244161 11.05024472 -11 12 C-7.49102731 7.81576108 -3.91939465 3.80411834 0 0 Z " fill="#85C298" transform="translate(94,30)"/>
<path d="M0 0 C5.03891682 1.43969052 6.86602297 4.01900215 10 8 C10.66 8.33 11.32 8.66 12 9 C12 9.66 12 10.32 12 11 C12.66 11 13.32 11 14 11 C14.66 12.65 15.32 14.3 16 16 C10.35573231 11.31645873 4.9941954 6.3792354 0 1 C0 0.67 0 0.34 0 0 Z " fill="#EFFEF5" transform="translate(104,31)"/>
<path d="M0 0 C0.99 0.33 1.98 0.66 3 1 C-0.3 4.3 -3.6 7.6 -7 11 C-7.33 10.01 -7.66 9.02 -8 8 C-7.34 8 -6.68 8 -6 8 C-5.67 7.01 -5.34 6.02 -5 5 C-4.34 5 -3.68 5 -3 5 C-2.814375 4.0409375 -2.814375 4.0409375 -2.625 3.0625 C-2.41875 2.381875 -2.2125 1.70125 -2 1 C-1.34 0.67 -0.68 0.34 0 0 Z " fill="#E1F6E6" transform="translate(78,43)"/>
<path d="M0 0 C3.36720387 1.39332574 4.9859524 2.9789286 7 6 C5.68 5.67 4.36 5.34 3 5 C3 4.34 3 3.68 3 3 C1.35 3.33 -0.3 3.66 -2 4 C-1.34 2.68 -0.68 1.36 0 0 Z " fill="#99C5A6" transform="translate(97,26)"/>
<path d="M0 0 C1.65 0 3.3 0 5 0 C4.67 0.66 4.34 1.32 4 2 C3.34 2 2.68 2 2 2 C1.67 4.64 1.34 7.28 1 10 C0.67 10 0.34 10 0 10 C0 6.7 0 3.4 0 0 Z " fill="#163C43" transform="translate(52,148)"/>
<path d="M0 0 C4.75 0.75 4.75 0.75 7 3 C6.67 3.99 6.34 4.98 6 6 C5.566875 5.505 5.13375 5.01 4.6875 4.5 C3.00259517 2.66781808 3.00259517 2.66781808 0 3 C0 2.01 0 1.02 0 0 Z " fill="#8CC49C" transform="translate(96,49)"/>
</svg>
