<?xml version="1.0" encoding="UTF-8"?>
<svg version="1.1" xmlns="http://www.w3.org/2000/svg" width="600" height="600">
<path d="M0 0 C3.03390498 0.00536198 6.06766197 0.00002197 9.1015625 -0.00634766 C24.21686109 -0.01360146 38.95693997 0.40289649 53.8515625 3.25537109 C54.99955322 3.47273926 56.14754395 3.69010742 57.33032227 3.9140625 C76.66609264 7.70280156 95.66014895 13.01737811 114.0390625 20.13037109 C114.87179687 20.45199219 115.70453125 20.77361328 116.5625 21.10498047 C149.61442188 34.08966407 180.17602132 54.31096712 206.125 78.43896484 C208.79034087 80.90065367 211.49991585 83.29966885 214.2265625 85.69287109 C219.22220383 90.18735732 223.65359046 95.04587247 228.0390625 100.13037109 C228.86921875 101.07267578 229.699375 102.01498047 230.5546875 102.98583984 C243.80664165 118.17405174 255.19421125 134.55353516 265.0390625 152.13037109 C265.54179688 153.02739746 266.04453125 153.92442383 266.5625 154.84863281 C288.63554849 194.68796431 303.02173566 240.99644718 303.2421875 286.82568359 C303.24920181 287.80826141 303.25621613 288.79083923 303.26344299 289.80319214 C303.28083761 292.9539657 303.2872946 296.10455129 303.2890625 299.25537109 C303.29007462 300.87040527 303.29007462 300.87040527 303.29110718 302.51806641 C303.27541351 318.26453642 302.90486773 333.60469649 300.0390625 349.13037109 C299.86745605 350.10119629 299.69584961 351.07202148 299.51904297 352.07226562 C289.34135819 408.52703721 263.97579321 460.29496562 225.27734375 502.66943359 C223.79922204 504.29459358 222.33778989 505.93511015 220.89453125 507.59130859 C215.0400707 514.27910678 208.6967891 520.26602013 202.0390625 526.13037109 C201.53922852 526.57493652 201.03939453 527.01950195 200.52441406 527.47753906 C150.90531095 571.42818153 82.46116928 599.99740118 15.78125 600.33349609 C14.37363152 600.34388161 14.37363152 600.34388161 12.93757629 600.35447693 C9.9296952 600.37164298 6.92199026 600.37806281 3.9140625 600.38037109 C2.88705231 600.38171051 1.86004211 600.38304993 0.8019104 600.38442993 C-14.68620549 600.38004626 -29.66383809 599.71303863 -44.9609375 597.13037109 C-46.41097831 596.92000412 -47.8614819 596.71279416 -49.3125 596.50927734 C-87.28428655 590.87933431 -124.66605411 575.61294096 -156.9609375 555.13037109 C-157.99476563 554.47939453 -159.02859375 553.82841797 -160.09375 553.15771484 C-177.11317378 542.10643567 -192.55848755 529.1699029 -207.3984375 515.38037109 C-208.37393555 514.47774536 -208.37393555 514.47774536 -209.36914062 513.55688477 C-213.87384906 509.32359311 -217.95348471 504.83305022 -221.9609375 500.13037109 C-222.81816406 499.15455078 -223.67539063 498.17873047 -224.55859375 497.17333984 C-237.71597517 481.93079497 -249.1216763 465.69722666 -258.9609375 448.13037109 C-259.46367187 447.23334473 -259.96640625 446.33631836 -260.484375 445.41210938 C-282.55733801 405.57293217 -296.94386857 359.26418375 -297.1640625 313.43505859 C-297.17451599 311.96091995 -297.17451599 311.96091995 -297.18518066 310.45700073 C-297.20246306 307.30641337 -297.20889934 304.15600387 -297.2109375 301.00537109 C-297.21194458 299.93001099 -297.21295166 298.85465088 -297.21398926 297.7467041 C-297.2039965 281.99282594 -296.75815815 266.6718255 -293.9609375 251.13037109 C-293.82171875 250.29441406 -293.6825 249.45845703 -293.5390625 248.59716797 C-285.46782463 200.50604233 -265.21360123 154.35214153 -234.9609375 116.13037109 C-234.25582031 115.21384766 -233.55070312 114.29732422 -232.82421875 113.35302734 C-228.34951776 107.60762018 -223.49956779 102.26170686 -218.54296875 96.93505859 C-216.49262882 94.70791174 -214.52655913 92.45141234 -212.5859375 90.13037109 C-207.53095348 84.31713947 -201.70673744 79.24398449 -195.9609375 74.13037109 C-195.44257324 73.66727539 -194.92420898 73.20417969 -194.39013672 72.72705078 C-179.89093432 59.86463075 -164.02792875 49.15008308 -147.26416016 39.47216797 C-145.21104262 38.27607575 -143.1831438 37.04832436 -141.16015625 35.80224609 C-114.25500395 19.52803375 -82.55654593 10.29407874 -51.9609375 4.13037109 C-51.18395508 3.97197754 -50.40697266 3.81358398 -49.60644531 3.65039062 C-33.10609603 0.3424872 -16.77702813 -0.03522309 0 0 Z " fill="#FEFEFE" transform="translate(296.9609375,-0.13037109375)"/>
<path d="M0 0 C0.78581986 0.16238096 1.57163973 0.32476192 2.38127232 0.49206352 C6.9142458 1.12832654 11.32839536 1.13802854 15.89964294 1.12698364 C17.38837916 1.12932363 17.38837916 1.12932363 18.90719086 1.13171089 C22.2303787 1.13569712 25.55352081 1.13254041 28.87670898 1.12939453 C31.26029487 1.13074963 33.64388054 1.13253018 36.02746582 1.13470459 C41.82829287 1.13879247 47.62910539 1.13819213 53.42993288 1.13529195 C58.14559682 1.13303208 62.86125714 1.13272793 67.57692146 1.13381577 C68.24850024 1.133969 68.92007903 1.13412223 69.61200868 1.13428011 C70.97639036 1.13459984 72.34077204 1.13492405 73.70515371 1.1352527 C86.49518858 1.13810335 99.28521628 1.13482708 112.07524998 1.12945233 C123.04374121 1.12498569 134.01222185 1.12575988 144.98071289 1.13037109 C157.72394185 1.13572593 170.46716452 1.13782763 183.21039444 1.13475883 C184.57001722 1.13444029 185.92963999 1.13412592 187.28926277 1.13381577 C187.95818666 1.13366149 188.62711054 1.13350721 189.31630484 1.13334826 C194.02442874 1.13248576 198.73254864 1.13394027 203.44067192 1.13629532 C209.78127391 1.13918398 216.12185592 1.13717996 222.46245575 1.13140106 C224.78966552 1.13007876 227.11687697 1.1304586 229.44408607 1.13266373 C232.6205379 1.13539603 235.79692567 1.13196853 238.97337341 1.12698364 C240.35490015 1.13032973 240.35490015 1.13032973 241.76433653 1.13374341 C246.61719845 1.1189716 251.21483574 0.81946731 256 0 C255.125 4.875 255.125 4.875 254 6 C253.89769209 7.91943155 253.86645281 9.84266534 253.86196899 11.76481628 C253.85651566 13.01861588 253.85106232 14.27241547 253.84544373 15.56420898 C253.84432364 16.96752924 253.84327317 18.37084956 253.84228516 19.77416992 C253.83761836 21.24286552 253.83247502 22.71155968 253.82688904 24.18025208 C253.81557696 27.35648145 253.80715662 30.53270128 253.80076981 33.70894432 C253.79006736 38.76224089 253.76980414 43.81547092 253.74765015 48.86872864 C253.68584152 63.24440363 253.63212913 77.62007887 253.59863281 91.99584961 C253.5800733 99.92627569 253.55085687 107.85659396 253.5106281 115.7869404 C253.489864 119.97081743 253.47414605 124.15456025 253.47182083 128.33849144 C253.43217312 183.76162053 253.43217312 183.76162053 246 205 C245.79004395 205.63470215 245.58008789 206.2694043 245.36376953 206.92333984 C239.23244271 225.39746837 229.24906159 239.8061836 216 254 C215.31292969 254.74121094 214.62585938 255.48242188 213.91796875 256.24609375 C199.28874351 271.47243022 180.6575472 283.37717525 163.43457031 295.44750977 C156.32179308 300.44592493 149.32758361 305.6022678 142.33984375 310.7734375 C141.61651855 311.30549805 140.89319336 311.83755859 140.14794922 312.38574219 C138.69198498 313.47994945 137.25632054 314.60160188 135.84033203 315.74707031 C135.15181152 316.29717773 134.46329102 316.84728516 133.75390625 317.4140625 C133.15006104 317.91115723 132.54621582 318.40825195 131.92407227 318.92041016 C129.41631562 320.32750315 127.83677591 320.35400185 125 320 C123.26513672 319.02880859 123.26513672 319.02880859 121.6796875 317.6484375 C121.07205566 317.13410156 120.46442383 316.61976563 119.83837891 316.08984375 C119.19046387 315.52394531 118.54254883 314.95804687 117.875 314.375 C116.44581806 313.17077881 115.01339318 311.97039821 113.578125 310.7734375 C112.82982422 310.14920898 112.08152344 309.52498047 111.31054688 308.88183594 C107.51268545 305.78864956 103.57888446 302.88950201 99.625 300 C98.83254883 299.42008301 98.04009766 298.84016602 97.22363281 298.24267578 C92.46995845 294.77609389 87.69592216 291.33791768 82.92016602 287.90185547 C45.54112932 260.99976396 13.56407149 233.17264826 5.6875 185.5625 C5.0702356 181.71426171 4.4858111 177.86710555 4 174 C3.91740307 173.36030494 3.83480614 172.72060987 3.74970627 172.06153011 C2.84000577 164.18110489 2.84041943 156.31305807 2.82641602 148.39257812 C2.82009889 146.83771585 2.81333183 145.28285536 2.80615234 143.72799683 C2.79157214 140.39962642 2.77981232 137.07126257 2.77020454 133.74287415 C2.75467174 128.48231789 2.73072853 123.22182027 2.70530701 117.96130371 C2.63429869 103.00972188 2.57413702 88.05810865 2.52319336 73.10644531 C2.49493307 64.83381573 2.4595898 56.56124669 2.41653961 48.28868055 C2.38973376 43.05573027 2.37185087 37.82284829 2.36050236 32.5898428 C2.35140441 29.34475417 2.33405841 26.09974936 2.31432343 22.85470963 C2.30682537 21.34620093 2.30276552 19.83767079 2.30232811 18.32914352 C2.30125192 16.27657358 2.28688112 14.2240232 2.27174377 12.17150879 C2.26751184 11.02119423 2.2632799 9.87087967 2.25891972 8.68570709 C2.27274435 5.84875208 2.27274435 5.84875208 0 4 C0 2.68 0 1.36 0 0 Z " fill="#3D4D91" transform="translate(174,185)"/>
<path d="M0 0 C119.295 0.495 119.295 0.495 241 1 C241 34.66 241 68.32 241 103 C161.8 103 82.6 103 1 103 C0.67 69.01 0.34 35.02 0 0 Z " fill="#FEFEFE" transform="translate(181,191)"/>
<path d="M0 0 C13.53 0 27.06 0 41 0 C41 11.22 41 22.44 41 34 C73.67 34 106.34 34 140 34 C140 45.55 140 57.1 140 69 C163.1 69 186.2 69 210 69 C210 57.45 210 45.9 210 34 C242.67 34 275.34 34 309 34 C309 22.78 309 11.56 309 0 C322.53 0 336.06 0 350 0 C346.13609192 4.50789276 342.33926648 8.79767029 338.125 12.9375 C337.62742187 13.43056641 337.12984375 13.92363281 336.6171875 14.43164062 C335.41379715 15.62345992 334.20724635 16.81208678 333 18 C335.73786479 24.00277585 335.73786479 24.00277585 347 34 C347 46.87 347 59.74 347 73 C314.99 73 282.98 73 250 73 C250 86.2 250 99.4 250 113 C201.16 113 152.32 113 102 113 C102 99.8 102 86.6 102 73 C69.33 73 36.66 73 3 73 C3 60.13 3 47.26 3 34 C8 29 13 24 18 19 C17.45472656 18.45996338 16.90945312 17.91992676 16.34765625 17.36352539 C13.89586545 14.93242812 11.44788949 12.49752521 9 10.0625 C8.14148438 9.21236328 7.28296875 8.36222656 6.3984375 7.48632812 C5.58632812 6.67744141 4.77421875 5.86855469 3.9375 5.03515625 C3.18339844 4.2862915 2.42929688 3.53742676 1.65234375 2.76586914 C0 1 0 1 0 0 Z " fill="#3F4E92" transform="translate(125,461)"/>
<path d="M0 0 C1.65 0 3.3 0 5 0 C5.495 1.98 5.495 1.98 6 4 C7.11375 3.938125 8.2275 3.87625 9.375 3.8125 C11.169375 3.9053125 11.169375 3.9053125 13 4 C15.56687367 7.8503105 14.83288724 9.58569763 14 14 C15.32 14.66 16.64 15.32 18 16 C18 17.65 18 19.3 18 21 C16.35 21.66 14.7 22.32 13 23 C14.65 24.98 16.3 26.96 18 29 C16.6805785 32.83770821 15.0528022 35.22486091 12.3125 38.1875 C10.11862072 40.87998821 9.05710429 42.31665196 8.765625 45.8046875 C9.03038572 48.26417521 9.4039117 50.60061937 10 53 C10.66 53 11.32 53 12 53 C12.66 49.7 13.32 46.4 14 43 C15.65 42.67 17.3 42.34 19 42 C18.95875 40.72125 18.9175 39.4425 18.875 38.125 C18.8046875 35.9453125 18.8046875 35.9453125 19 34 C21.5654594 31.4345406 23.47686668 31.45953913 27 31 C27.99 26.545 27.99 26.545 29 22 C31.54838299 21.92921158 33.62858964 21.87619655 36.0625 22.6875 C36.701875 22.790625 37.34125 22.89375 38 23 C39.33849671 22.00692179 40.67151309 21.00642948 42 20 C44.6875 19.75 44.6875 19.75 47 20 C48 21 48 21 48.1875 23.8125 C48.00782439 26.86698544 47.57664404 28.43795344 46 31 C46.99 31.66 47.98 32.32 49 33 C48.58578031 37.83256305 46.53586014 39.82679218 43 43 C43.66 43.33 44.32 43.66 45 44 C44.64393309 46.58148508 44.16671807 47.82045747 42.375 49.75 C39.16865877 51.43754802 36.56651486 51.20576047 33 51 C33.309375 52.175625 33.309375 52.175625 33.625 53.375 C33.74875 54.24125 33.8725 55.1075 34 56 C32 58 32 58 28.91796875 58.08984375 C26.43868119 57.98859536 23.9595103 57.8844467 21.48046875 57.77734375 C17.67233266 58.02096188 15.95436507 58.62908225 13 61 C10.28738579 64.56134626 10.55773046 68.94060657 10.375 73.25 C10.33632813 73.99507813 10.29765625 74.74015625 10.2578125 75.5078125 C10.16394892 77.3381524 10.08090282 79.16904143 10 81 C13.37807 80.9958643 13.37807 80.9958643 17 80 C19.21611074 77.2452593 19.21611074 77.2452593 20.6875 73.75 C24.71917593 65.24402978 24.71917593 65.24402978 28 62 C30.359375 61.73046875 30.359375 61.73046875 32.75 62.1875 C33.54921875 62.32542969 34.3484375 62.46335938 35.171875 62.60546875 C35.77515625 62.73566406 36.3784375 62.86585937 37 63 C37.39832031 62.31292969 37.79664063 61.62585938 38.20703125 60.91796875 C38.73683594 60.01691406 39.26664062 59.11585937 39.8125 58.1875 C40.33457031 57.29417969 40.85664063 56.40085938 41.39453125 55.48046875 C42.79993669 53.30910024 43.98566023 51.61039463 46 50 C48.5625 50.125 48.5625 50.125 51 51 C51.66 51.99 52.32 52.98 53 54 C53.36351562 53.36191406 53.72703125 52.72382812 54.1015625 52.06640625 C58.2030158 45.32529967 58.2030158 45.32529967 62.0625 43.75 C65.45883406 44.03904971 67.19728266 45.13152178 70 47 C70.66 46.67 71.32 46.34 72 46 C75 45.8125 75 45.8125 78 46 C78.66 46.66 79.32 47.32 80 48 C79.69347955 50.9425963 79.32728846 53.34542308 78 56 C77.01 56 76.02 56 75 56 C75.515625 56.721875 76.03125 57.44375 76.5625 58.1875 C78 61 78 61 77.875 63.6875 C77 66 77 66 74 68 C71.51953125 67.9765625 71.51953125 67.9765625 68.8125 67.625 C67.91144531 67.51414062 67.01039063 67.40328125 66.08203125 67.2890625 C65.39496094 67.19367188 64.70789063 67.09828125 64 67 C64.350625 67.70125 64.70125 68.4025 65.0625 69.125 C66.17950029 72.55046754 65.92105945 74.54602707 65 78 C63 80 63 80 59.3125 80.375 C54.63465331 80.28948178 51.84208308 78.56138872 48 76 C48.16048828 77.03060547 48.16048828 77.03060547 48.32421875 78.08203125 C48.44410156 78.98308594 48.56398438 79.88414063 48.6875 80.8125 C48.81511719 81.70582031 48.94273437 82.59914063 49.07421875 83.51953125 C49 86 49 86 47.87402344 87.64550781 C45.17852256 89.59374112 43.23613151 89.27678788 39.94140625 89.15234375 C38.75095703 89.12462891 37.56050781 89.09691406 36.33398438 89.06835938 C33.82342439 88.98125035 31.31300078 88.89011639 28.80273438 88.79492188 C27.61099609 88.76849609 26.41925781 88.74207031 25.19140625 88.71484375 C23.55473999 88.65478149 23.55473999 88.65478149 21.88500977 88.59350586 C18.26649389 89.10335006 17.1903531 90.12917341 15 93 C12.40915747 100.77252759 12.11985696 107.3977238 14.85546875 115.140625 C17.3067337 119.12288478 20.24921236 120.77715984 24.671875 122.08984375 C26.02925159 122.38184525 27.38875509 122.66409851 28.75 122.9375 C35.15595449 124.36202047 40.51142116 126.27996323 46 130 C46 130.33 46 130.66 46 131 C38.68943994 130.5597444 31.50333593 129.94909284 24.25 128.9375 C7.30828418 126.75774795 -13.55409356 125.51803119 -30 131 C-31.72795352 131.06802967 -33.45835365 131.08495645 -35.1875 131.0625 C-36.08855469 131.05347656 -36.98960937 131.04445312 -37.91796875 131.03515625 C-38.94857422 131.01775391 -38.94857422 131.01775391 -40 131 C-37.6188185 128.24284248 -35.41863803 127.19254815 -32 126 C-31.02804687 125.6596875 -30.05609375 125.319375 -29.0546875 124.96875 C-26.09698018 124.03075586 -23.13499544 123.25045957 -20.125 122.5 C-15.25187952 121.2139411 -11.76046929 119.67191792 -8.8984375 115.328125 C-6.58253328 109.32691232 -6.89695188 99.68823007 -9.3125 93.6875 C-10.87948487 90.78446113 -10.87948487 90.78446113 -14 89 C-16.3789529 88.72060601 -16.3789529 88.72060601 -18.9375 88.8125 C-19.79214844 88.81894531 -20.64679688 88.82539062 -21.52734375 88.83203125 C-23.93799523 88.92150027 -23.93799523 88.92150027 -25.97265625 89.5 C-28.51884686 90.12796223 -30.87942441 90.16950154 -33.5 90.1875 C-34.4384375 90.20167969 -35.376875 90.21585937 -36.34375 90.23046875 C-39.09403256 89.99184129 -40.69569211 89.49256307 -43 88 C-44.20272819 85.59454362 -44.10071472 84.05003047 -44.0625 81.375 C-44.05347656 80.55773437 -44.04445312 79.74046875 -44.03515625 78.8984375 C-44.02355469 78.27195312 -44.01195312 77.64546875 -44 77 C-47.18234105 78.75454385 -47.18234105 78.75454385 -50 81 C-57.14786967 81.5764411 -57.14786967 81.5764411 -60.125 79.5625 C-61.50639158 75.5169961 -60.18909387 72.00356784 -59 68 C-60.485 68.495 -60.485 68.495 -62 69 C-64.71352639 69.33371998 -67.29245335 69.41091664 -70 69 C-72.0625 67.25 -72.0625 67.25 -73 65 C-72.6875 63 -72.6875 63 -72 61 C-71.58149837 57.10410228 -71.58149837 57.10410228 -73.5625 55.0625 C-75 53 -75 53 -74.75 50.3125 C-74 48 -74 48 -73 47 C-69.63370749 46.85363946 -67.21580438 46.92806521 -64 48 C-63.62875 47.505 -63.2575 47.01 -62.875 46.5 C-61 45 -61 45 -58.0625 44.5 C-55 45 -55 45 -52.75 47.25 C-51.33939908 49.4666586 -50.06573704 51.60209165 -49 54 C-48.34 54 -47.68 54 -47 54 C-45.36323743 52.0399719 -45.36323743 52.0399719 -44 50 C-41.22312716 50.35462229 -40.20868995 50.75386568 -38.3671875 52.92578125 C-37.62855469 54.10720703 -37.62855469 54.10720703 -36.875 55.3125 C-36.37742187 56.09238281 -35.87984375 56.87226562 -35.3671875 57.67578125 C-34.14777045 59.74879023 -33.04129555 61.83311354 -32 64 C-31.40832031 63.85820313 -30.81664062 63.71640625 -30.20703125 63.5703125 C-27.7181531 63.10745425 -25.52987583 62.8549481 -23 63 C-18.23665239 66.8972844 -16.62139556 71.99444997 -14.6015625 77.70703125 C-13.09636439 80.4108539 -13.09636439 80.4108539 -9.3359375 80.82421875 C-8.23507812 80.88222656 -7.13421875 80.94023438 -6 81 C-5.89154969 78.43635517 -5.81250256 75.87733721 -5.75 73.3125 C-5.71648437 72.59126953 -5.68296875 71.87003906 -5.6484375 71.12695312 C-5.5778576 67.26270336 -5.74080313 65.41925648 -7.828125 62.04296875 C-12.24089944 57.89210359 -17.27543111 58.99987137 -22.96875 59.16015625 C-26 59 -26 59 -29 57 C-29.1875 54.375 -29.1875 54.375 -29 52 C-29.62648438 51.87882812 -30.25296875 51.75765625 -30.8984375 51.6328125 C-32.12433594 51.38144531 -32.12433594 51.38144531 -33.375 51.125 C-34.18710937 50.96257812 -34.99921875 50.80015625 -35.8359375 50.6328125 C-38 50 -38 50 -40 48 C-39.46428571 44.46428571 -39.46428571 44.46428571 -38 43 C-38.99 42.278125 -39.98 41.55625 -41 40.8125 C-43.94793497 38.3904877 -43.94793497 38.3904877 -44.375 35.1875 C-44.25125 34.465625 -44.1275 33.74375 -44 33 C-43.01 32.505 -43.01 32.505 -42 32 C-42.350625 31.113125 -42.70125 30.22625 -43.0625 29.3125 C-44.01755602 25.93796874 -43.97151132 24.30313848 -43 21 C-41.4375 20.25 -41.4375 20.25 -39 20 C-37.26628348 21.05949343 -35.53331896 22.12051846 -33.81640625 23.20703125 C-31.78531782 24.30502795 -31.78531782 24.30502795 -28.5625 23.25 C-27.716875 22.8375 -26.87125 22.425 -26 22 C-23.47740939 23.97420135 -23.0070192 24.96745642 -22.3125 28.1875 C-22.1578125 29.5796875 -22.1578125 29.5796875 -22 31 C-19.69 31.66 -17.38 32.32 -15 33 C-13.875 39.625 -13.875 39.625 -15 43 C-14.030625 42.979375 -13.06125 42.95875 -12.0625 42.9375 C-9 43 -9 43 -8 44 C-7.76636119 45.84891946 -7.58696365 47.70488031 -7.4375 49.5625 C-7.35371094 50.57441406 -7.26992188 51.58632812 -7.18359375 52.62890625 C-7.12300781 53.41136719 -7.06242187 54.19382813 -7 55 C-4.87424341 54.21806727 -4.87424341 54.21806727 -4.375 52.375 C-3.25163649 46.36319548 -3.25163649 46.36319548 -5.4921875 40.875 C-6.72156297 39.48748909 -7.98134993 38.1261832 -9.2734375 36.796875 C-11 35 -11 35 -13 32 C-12.6169847 29.03163146 -11.40416706 26.62111184 -10 24 C-10.515625 23.608125 -11.03125 23.21625 -11.5625 22.8125 C-13 21 -13 21 -12.8125 18.375 C-12 16 -12 16 -10 15 C-10.01160156 14.36191406 -10.02320313 13.72382812 -10.03515625 13.06640625 C-10.04417969 12.24011719 -10.05320312 11.41382813 -10.0625 10.5625 C-10.07410156 9.73878906 -10.08570313 8.91507813 -10.09765625 8.06640625 C-10 6 -10 6 -9 5 C-7.865625 4.896875 -6.73125 4.79375 -5.5625 4.6875 C-1.93435308 4.41670358 -1.93435308 4.41670358 -0.5625 1.9375 C-0.2840625 0.9784375 -0.2840625 0.9784375 0 0 Z " fill="#3B4B90" transform="translate(299,27)"/>
<path d="M0 0 C0.74572266 0.01047363 1.49144531 0.02094727 2.25976562 0.03173828 C10.94789818 0.31818108 16.01903279 2.53089583 22.125 8.8125 C31.60384987 20.11420561 39.75653682 34.86730248 39.0078125 50.06640625 C37.52515603 57.96090169 32.91785231 64.67098576 26.5625 69.4375 C8.94526111 81.34103979 -11.16958786 87.50200026 -32.4375 85.4375 C-39.04254686 83.65567341 -43.81979035 80.22583544 -47.4375 74.4375 C-47.9375 71.6875 -47.9375 71.6875 -47.4375 69.4375 C-43.75946296 66.98547531 -40.99645848 67.17591119 -36.75 67.25 C-35.72616211 67.2509668 -35.72616211 67.2509668 -34.68164062 67.25195312 C-30.62243028 67.28645066 -26.73057884 67.65745209 -22.70336914 68.20385742 C-17.81729053 68.70767999 -12.90738278 68.66417317 -8 68.6875 C-6.37868164 68.7184375 -6.37868164 68.7184375 -4.72460938 68.75 C4.30415052 68.79380235 11.14351677 66.9093645 19.125 62.75 C20.39537109 62.09451172 20.39537109 62.09451172 21.69140625 61.42578125 C22.61759766 60.93658203 22.61759766 60.93658203 23.5625 60.4375 C23.5625 59.7775 23.5625 59.1175 23.5625 58.4375 C20.18757371 58.37904804 16.81277913 58.34375258 13.4375 58.3125 C12.48617187 58.29574219 11.53484375 58.27898437 10.5546875 58.26171875 C5.42726041 58.22611162 1.39433628 58.52862641 -3.4375 60.4375 C-6.8125 60.5625 -6.8125 60.5625 -9.4375 60.4375 C-9.21484375 58.546875 -9.21484375 58.546875 -8.4375 56.4375 C-6.44140625 55.390625 -6.44140625 55.390625 -4 54.6875 C-3.19691406 54.44515625 -2.39382813 54.2028125 -1.56640625 53.953125 C0.5625 53.4375 0.5625 53.4375 2.5625 53.4375 C2.5625 52.7775 2.5625 52.1175 2.5625 51.4375 C-1.3344135 51.48946482 -5.22912586 51.58456478 -9.125 51.6875 C-10.22779297 51.70167969 -11.33058594 51.71585937 -12.46679688 51.73046875 C-20.27208915 51.92001488 -20.27208915 51.92001488 -26.4375 56.4375 C-29.64470515 58.38634498 -32.68223959 58.97575623 -36.375 59.5625 C-37.39464844 59.73007812 -38.41429687 59.89765625 -39.46484375 60.0703125 C-42.16342382 60.40364565 -44.72288935 60.50748996 -47.4375 60.4375 C-44.55408466 56.22327758 -42.39446581 54.67674145 -37.4375 53.4375 C-37.4375 52.7775 -37.4375 52.1175 -37.4375 51.4375 C-41.31143711 49.6402156 -44.43536675 49.16744215 -48.69140625 49.09375 C-49.87541016 49.06410156 -51.05941406 49.03445313 -52.27929688 49.00390625 C-54.76367063 48.95956572 -57.24804564 48.91529511 -59.73242188 48.87109375 C-61.50649414 48.82662109 -61.50649414 48.82662109 -63.31640625 48.78125 C-64.93397827 48.75321289 -64.93397827 48.75321289 -66.58422852 48.72460938 C-69.37838202 48.44344872 -71.05714492 47.87756991 -73.4375 46.4375 C-73.55571989 40.99938483 -71.94587484 38.41102989 -68.375 34.3125 C-62.81763069 28.53633662 -57.78753256 25.14825553 -50.1875 22.6875 C-45.68281739 21.15504282 -42.47616025 19.14011545 -38.75 16.1875 C-34.11244309 12.52340679 -29.48574054 9.67864111 -24.1875 7.0625 C-23.53821533 6.74120117 -22.88893066 6.41990234 -22.2199707 6.08886719 C-20.30662349 5.16875049 -18.38077561 4.29248239 -16.4375 3.4375 C-15.78837646 3.14834717 -15.13925293 2.85919434 -14.47045898 2.5612793 C-9.58397512 0.5403816 -5.27029962 -0.07792754 0 0 Z " fill="#FCFDFD" transform="translate(312.4375,385.5625)"/>
<path d="M0 0 C46.2 0 92.4 0 140 0 C140 11.88 140 23.76 140 36 C93.8 36 47.6 36 0 36 C0 24.12 0 12.24 0 0 Z " fill="#F7F7FA" transform="translate(231,534)"/>
<path d="M0 0 C3.3 0 6.6 0 10 0 C9.34 2.31 8.68 4.62 8 7 C9.98 6.67 11.96 6.34 14 6 C14 8.31 14 10.62 14 13 C12.02 12.67 10.04 12.34 8 12 C9.75454385 15.18234105 9.75454385 15.18234105 12 18 C12.04063832 19.66617115 12.042721 21.33388095 12 23 C13.00417969 23.27972656 14.00835937 23.55945313 15.04296875 23.84765625 C27.48952583 27.44271637 40.1436692 32.02791099 49 42 C55.14633699 54.29267398 47.79880594 67.06089561 44 79 C18.26 79 -7.48 79 -34 79 C-43.03563218 50.60229885 -43.03563218 50.60229885 -39.5625 42.75 C-30.78576825 33.33106837 -16.24730518 24.43605554 -3.0625 23.875 C-2.381875 23.91625 -1.70125 23.9575 -1 24 C-1.226875 23.071875 -1.45375 22.14375 -1.6875 21.1875 C-2 18 -2 18 -0.625 16.3125 C-0.08875 15.879375 0.4475 15.44625 1 15 C1.33 14.01 1.66 13.02 2 12 C0.35 12.33 -1.3 12.66 -3 13 C-3 10.69 -3 8.38 -3 6 C-0.525 6.495 -0.525 6.495 2 7 C1.34 4.69 0.68 2.38 0 0 Z " fill="#3D4D91" transform="translate(295,197)"/>
<path d="M0 0 C42.57 0 85.14 0 129 0 C122.33541342 7.77535101 122.33541342 7.77535101 118.5625 11.4375 C115.16472538 14.78974331 111.96791027 18.22867824 108.8984375 21.8828125 C108.27195312 22.58148437 107.64546875 23.28015625 107 24 C106.54922561 24.56432267 106.09845121 25.12864534 105.63401699 25.7100687 C102.50221514 29.30957623 100.22413496 31.42814706 95.36183167 31.84178162 C93.58314376 31.86189316 91.80375635 31.84385844 90.02563477 31.79467773 C89.04925552 31.79569992 88.07287628 31.79672211 87.06690979 31.79777527 C83.85727946 31.79291964 80.6505361 31.73857261 77.44140625 31.68359375 C75.209402 31.6705304 72.97737761 31.66056971 70.74534607 31.65357971 C64.88404466 31.62691269 59.02396659 31.55819995 53.16314697 31.48065186 C47.17729236 31.40891454 41.19123914 31.37704568 35.20507812 31.34179688 C23.4694294 31.2668288 11.73500804 31.14374556 0 31 C0 20.77 0 10.54 0 0 Z " fill="#FCFCFD" transform="translate(132,499)"/>
<path d="M0 0 C42.57 0 85.14 0 129 0 C129 10.23 129 20.46 129 31 C116.09983053 31.18090853 103.20050666 31.32760494 90.29935455 31.41449738 C84.3084644 31.4562066 78.31848881 31.51275873 72.328125 31.60351562 C66.54439846 31.69059112 60.76155017 31.73830622 54.97721863 31.75901794 C52.77314938 31.77377297 50.56912695 31.80258749 48.36543274 31.84584045 C45.27187162 31.90413135 42.18191464 31.91190449 39.08789062 31.90820312 C38.18157898 31.93696533 37.27526733 31.96572754 36.3414917 31.99536133 C31.01148207 31.92659676 28.40071957 30.95664614 24.56481934 27.1697998 C23.35006691 25.80294793 22.16008033 24.41354912 21 23 C19.95872079 21.79133276 18.91711797 20.58294413 17.875 19.375 C17.04935547 18.41013672 17.04935547 18.41013672 16.20703125 17.42578125 C12.50083007 13.35223978 8.55344681 9.51536174 4.62255859 5.65966797 C4.02652832 5.0720166 3.43049805 4.48436523 2.81640625 3.87890625 C2.27443604 3.3485376 1.73246582 2.81816895 1.17407227 2.27172852 C0 1 0 1 0 0 Z " fill="#FCFDFD" transform="translate(339,499)"/>
<path d="M0 0 C4.5858392 2.21102961 6.72314488 4.51432131 9 9 C9.36076355 11.57539368 9.36076355 11.57539368 9.34057617 14.34106445 C9.34023628 15.90211662 9.34023628 15.90211662 9.33988953 17.4947052 C9.32440567 18.6063353 9.30892181 19.71796539 9.29296875 20.86328125 C9.28872391 22.01040085 9.28447906 23.15752045 9.28010559 24.33940125 C9.26333484 27.99734121 9.22568435 31.654727 9.1875 35.3125 C9.17245114 37.79491391 9.15876309 40.27733647 9.14648438 42.75976562 C9.11343649 48.84003231 9.0632524 54.91997656 9 61 C8.33758301 60.71632568 7.67516602 60.43265137 6.99267578 60.14038086 C5.66985596 59.58942749 5.66985596 59.58942749 4.3203125 59.02734375 C3.01731201 58.47808228 3.01731201 58.47808228 1.68798828 57.91772461 C-5.52653202 55.4545655 -12.28902426 56.76173441 -19 60 C-19.94875 60.53625 -20.8975 61.0725 -21.875 61.625 C-26.10284329 63.48525105 -30.37625721 64.16712323 -35 64 C-35.99 63.34 -36.98 62.68 -38 62 C-38.36076355 59.67147827 -38.36076355 59.67147827 -38.34057617 56.72412109 C-38.34034958 55.6231308 -38.34012299 54.5221405 -38.33988953 53.38778687 C-38.32440567 52.19505157 -38.30892181 51.00231628 -38.29296875 49.7734375 C-38.28872391 48.55548492 -38.28447906 47.33753235 -38.28010559 46.08267212 C-38.26326831 42.17989296 -38.22560595 38.27762396 -38.1875 34.375 C-38.17245974 31.73438244 -38.15877019 29.09375681 -38.14648438 26.453125 C-38.11334822 19.96857496 -38.06309861 13.48432392 -38 7 C-36.97680412 7.01339165 -36.97680412 7.01339165 -35.93293762 7.02705383 C-34.58711861 7.03746956 -34.58711861 7.03746956 -33.21411133 7.0480957 C-32.32573074 7.05702347 -31.43735016 7.06595123 -30.52204895 7.07514954 C-27.33046578 6.98004988 -24.68368011 6.27001703 -21.6875 5.1875 C-20.72199219 4.85105469 -19.75648438 4.51460938 -18.76171875 4.16796875 C-15.96255856 3.0754495 -15.96255856 3.0754495 -13.484375 1.390625 C-9.18844174 -1.01401689 -4.78184113 -0.63196138 0 0 Z " fill="#FDFDFE" transform="translate(231,303)"/>
<path d="M0 0 C5.04591624 2.28693946 9.06153499 3.12582473 14.6328125 3.0234375 C15.79087402 3.00708252 16.94893555 2.99072754 18.14208984 2.97387695 C19.01816895 2.95284912 19.89424805 2.93182129 20.796875 2.91015625 C20.87273902 10.70631703 20.92539614 18.50238318 20.96166992 26.29882812 C20.97678645 28.95283566 20.99727995 31.60681811 21.02319336 34.26074219 C21.05945021 38.06842225 21.07657263 41.875773 21.08984375 45.68359375 C21.10532761 46.87632904 21.12081146 48.06906433 21.13676453 49.29794312 C21.13699112 50.39893341 21.13721771 51.49992371 21.13745117 52.63427734 C21.14411301 53.60690521 21.15077484 54.57953308 21.15763855 55.58163452 C21.03858658 56.35004669 20.91953461 57.11845886 20.796875 57.91015625 C16.95125389 60.47390365 15.08053981 60.05949914 10.6328125 59.53125 C6.53317837 58.63339624 2.98021185 56.94086744 -0.7578125 55.06640625 C-5.75408882 52.70394971 -10.73554361 52.22111572 -16.203125 52.91015625 C-18.46176005 53.79129326 -20.48053285 54.81701173 -22.57421875 56.03515625 C-24.203125 56.91015625 -24.203125 56.91015625 -26.203125 56.91015625 C-26.33004783 49.47219083 -26.41752852 42.03450534 -26.4777832 34.59570312 C-26.50290544 32.06597456 -26.53700921 29.53631843 -26.58032227 27.00683594 C-26.64107055 23.36765662 -26.66935885 19.72943813 -26.69140625 16.08984375 C-26.71721268 14.96150116 -26.7430191 13.83315857 -26.76960754 12.67062378 C-26.77273149 3.89699171 -26.77273149 3.89699171 -23.78588867 0.23486328 C-15.94814758 -6.81977049 -8.62242171 -4.26534691 0 0 Z " fill="#FEFEFE" transform="translate(270.203125,307.08984375)"/>
<path d="M0 0 C3.81730846 1.38061898 7.3853164 3.16095045 11 5 C17.50572919 7.90681517 20.74341596 7 29 7 C29 25.15 29 43.3 29 62 C24.99983203 64.00008399 20.34641055 63.50973037 16 63 C12.1529724 61.64251383 8.6203535 59.86521591 5 58 C-1.00302071 55.9989931 -7.80034172 56.08979657 -13.625 58.5 C-14.40875 58.995 -15.1925 59.49 -16 60 C-16.66 60 -17.32 60 -18 60 C-18.15247046 52.72284879 -18.25735018 45.4461113 -18.32958984 38.16772461 C-18.35971262 35.69328417 -18.40061976 33.21895007 -18.45263672 30.74487305 C-18.52564471 27.18251274 -18.55950318 23.62156719 -18.5859375 20.05859375 C-18.61690521 18.95728622 -18.64787292 17.8559787 -18.67977905 16.72129822 C-18.68253932 10.38351123 -18.03942123 6.76485795 -13.48721313 2.20497131 C-9.50358016 -1.02265178 -4.88346118 -0.61293101 0 0 Z " fill="#FDFDFD" transform="translate(380,303)"/>
<path d="M0 0 C3.97651858 2.06189852 6.64812612 4.2018666 9 8 C9.36076355 10.49310303 9.36076355 10.49310303 9.34057617 13.31933594 C9.34023628 14.91053253 9.34023628 14.91053253 9.33988953 16.53387451 C9.32440567 17.67253967 9.30892181 18.81120483 9.29296875 19.984375 C9.28872391 21.15510559 9.28447906 22.32583618 9.28010559 23.53204346 C9.26331175 27.27159616 9.22565704 31.01061015 9.1875 34.75 C9.17245413 37.28514847 9.15876556 39.82030538 9.14648438 42.35546875 C9.11340585 48.57049633 9.06319883 54.78520968 9 61 C8.38475464 60.71741333 7.76950928 60.43482666 7.13562012 60.14367676 C5.92283386 59.59399231 5.92283386 59.59399231 4.68554688 59.03320312 C3.88467651 58.66811646 3.08380615 58.30302979 2.25866699 57.92687988 C-2.80800592 55.84769016 -8.26204046 56.09324442 -13.41796875 57.80078125 C-15.6539804 58.79755753 -17.82282979 59.88134348 -20 61 C-25.11933861 63.28695688 -29.27819366 64.57218063 -35 64 C-37 62 -37 62 -37.24050903 59.67147827 C-37.23606781 58.6988504 -37.23162659 57.72622253 -37.22705078 56.72412109 C-37.22689972 55.6231308 -37.22674866 54.5221405 -37.22659302 53.38778687 C-37.21627045 52.19505157 -37.20594788 51.00231628 -37.1953125 49.7734375 C-37.1924826 48.55548492 -37.18965271 47.33753235 -37.18673706 46.08267212 C-37.17551256 42.18001617 -37.15040372 38.27758697 -37.125 34.375 C-37.11497314 31.73437831 -37.10584678 29.09375303 -37.09765625 26.453125 C-37.07556581 19.9686722 -37.04206592 13.4843523 -37 7 C-36.1961084 7.02102783 -35.3922168 7.04205566 -34.56396484 7.0637207 C-33.49871582 7.08007568 -32.4334668 7.09643066 -31.3359375 7.11328125 C-30.2845459 7.13430908 -29.2331543 7.15533691 -28.14990234 7.17700195 C-22.1295849 6.83870323 -17.09799547 4.19885456 -11.9375 1.25 C-7.87990872 -0.47663459 -4.34563848 -0.70869732 0 0 Z " fill="#FEFEFE" transform="translate(348,303)"/>
<path d="M0 0 C2.95839355 -0.02689449 5.91654427 -0.04678741 8.875 -0.0625 C9.71675781 -0.07087891 10.55851562 -0.07925781 11.42578125 -0.08789062 C12.23144531 -0.09111328 13.03710938 -0.09433594 13.8671875 -0.09765625 C14.98262939 -0.10551147 14.98262939 -0.10551147 16.12060547 -0.11352539 C18 0 18 0 20 1 C21.69460324 1.04910312 23.39120585 1.03663851 25.0859375 0.9921875 C26.09914063 0.97542969 27.11234375 0.95867187 28.15625 0.94140625 C30.29445012 0.8972929 32.43250227 0.84526583 34.5703125 0.78515625 C36.09398437 0.76388672 36.09398437 0.76388672 37.6484375 0.7421875 C38.57833496 0.7201123 39.50823242 0.69803711 40.46630859 0.67529297 C43.49764276 1.06377576 44.83973448 1.86221773 47 4 C47.51020728 8.08165827 47.31361802 9.52957297 45 13 C41.62496331 11.8141763 39.35277269 10.72426311 37 8 C37.99 10.475 37.99 10.475 39 13 C34.60438961 13.11629782 30.20917571 13.18728634 25.8125 13.25 C24.56662109 13.28351563 23.32074219 13.31703125 22.03710938 13.3515625 C20.2340332 13.37089844 20.2340332 13.37089844 18.39453125 13.390625 C16.73707886 13.4220459 16.73707886 13.4220459 15.04614258 13.45410156 C11.34471613 12.90231402 9.69064967 11.53083077 7 9 C7.66 10.32 8.32 11.64 9 13 C5.81858133 13.46557346 3.74656877 13.50963377 1.04296875 11.6640625 C-0.6935608 10.15741976 -2.369718 8.62063536 -4 7 C-4.33 7.33 -4.66 7.66 -5 8 C-3.68 9.65 -2.36 11.3 -1 13 C-3 13 -5 13 -7 13 C-7 13.33 -7 13.66 -7 14 C-9.58340384 14.02703562 -12.16652308 14.04685611 -14.75 14.0625 C-15.47960937 14.07087891 -16.20921875 14.07925781 -16.9609375 14.08789062 C-22.5609388 14.11334518 -22.5609388 14.11334518 -25.03613281 13.47436523 C-27.20379692 12.83817252 -27.20379692 12.83817252 -30.3125 13.3125 C-35.34717752 12.88583241 -37.56471629 10.50837485 -41 7 C-40.690625 7.61875 -40.38125 8.2375 -40.0625 8.875 C-39.375 10.25 -38.6875 11.625 -38 13 C-41.28980238 13.37597742 -42.72635911 13.17352837 -45.5625 11.375 C-48.20583886 8.79943906 -50.03629216 6.11484691 -52 3 C-52.66 2.34 -53.32 1.68 -54 1 C-36 1 -18 1 0 1 C0 0.67 0 0.34 0 0 Z " fill="#455495" transform="translate(312,159)"/>
<path d="M0 0 C9.17358787 1.78536599 17.8880871 5.7492186 24.46875 12.48046875 C26.10487659 15.15917444 26.46875 16.27738349 26.46875 19.48046875 C25.97375 20.96546875 25.97375 20.96546875 25.46875 22.48046875 C24.14875 22.15046875 22.82875 21.82046875 21.46875 21.48046875 C21.13875 23.46046875 20.80875 25.44046875 20.46875 27.48046875 C22.11875 27.15046875 23.76875 26.82046875 25.46875 26.48046875 C24.98709131 32.86244642 24.98709131 32.86244642 22.84375 35.41796875 C19.47122755 36.9267288 17.11427028 37.01072625 13.46875 36.48046875 C11.46875 34.29296875 11.46875 34.29296875 10.46875 31.48046875 C10.78125 28.66796875 10.78125 28.66796875 11.46875 26.48046875 C11.79875 27.14046875 12.12875 27.80046875 12.46875 28.48046875 C14.55208079 26.73111977 14.55208079 26.73111977 16.46875 24.48046875 C16.46875 23.16046875 16.46875 21.84046875 16.46875 20.48046875 C15.14875 20.48046875 13.82875 20.48046875 12.46875 20.48046875 C11.39349806 17.82818063 10.37418849 15.19678421 9.46875 12.48046875 C6.94286298 14.84339531 5.58054163 16.14509386 4.46875 19.48046875 C2.81875 19.48046875 1.16875 19.48046875 -0.53125 19.48046875 C-0.20125 21.79046875 0.12875 24.10046875 0.46875 26.48046875 C2.94375 27.47046875 2.94375 27.47046875 5.46875 28.48046875 C4.98845669 33.88376848 4.98845669 33.88376848 2.78125 36.41796875 C-0.45919747 37.90682299 -2.18030842 37.62121482 -5.53125 36.48046875 C-8.27594461 33.18683522 -8.89428085 30.71582863 -8.53125 26.48046875 C-7.54125 26.81046875 -6.55125 27.14046875 -5.53125 27.48046875 C-5.53125 25.50046875 -5.53125 23.52046875 -5.53125 21.48046875 C-6.85125 21.48046875 -8.17125 21.48046875 -9.53125 21.48046875 C-8.65625 17.60546875 -8.65625 17.60546875 -7.53125 16.48046875 C-8.19125 16.15046875 -8.85125 15.82046875 -9.53125 15.48046875 C-10.14141949 6.75165519 -10.14141949 6.75165519 -8.03125 2.35546875 C-5.26626881 0.28173286 -3.45210744 -0.23829846 0 0 Z " fill="#F7F8FA" transform="translate(312.53125,228.51953125)"/>
<path d="M0 0 C2.5 1.875 2.5 1.875 4 5 C4.3080206 8.36255818 4.23524404 11.6347033 4 15 C3.34 15.33 2.68 15.66 2 16 C2.66 16.66 3.32 17.32 4 18 C4 18.99 4 19.98 4 21 C2.68 21 1.36 21 0 21 C0 22.98 0 24.96 0 27 C1.32 26.67 2.64 26.34 4 26 C3.43583694 29.94914145 2.52323198 32.86771202 0 36 C-2.875 37.125 -2.875 37.125 -6 37 C-8.9375 34.875 -8.9375 34.875 -11 32 C-10.8125 29.1875 -10.8125 29.1875 -10 27 C-8.68 27 -7.36 27 -6 27 C-5.67 24.69 -5.34 22.38 -5 20 C-6.65 20 -8.3 20 -10 20 C-10.45375 18.865625 -10.9075 17.73125 -11.375 16.5625 C-12.57095806 12.95278308 -12.57095806 12.95278308 -15 12 C-15.66 14.64 -16.32 17.28 -17 20 C-18.32 20 -19.64 20 -21 20 C-20.74438677 22.3431213 -20.40729228 24.67843403 -20 27 C-19.34 27.33 -18.68 27.66 -18 28 C-17.67 27.34 -17.34 26.68 -17 26 C-16.67 26.33 -16.34 26.66 -16 27 C-16.6 33.6 -16.6 33.6 -19 36 C-23.44107603 36.58655721 -25.33564344 36.48442666 -29 33.8125 C-31 31 -31 31 -30.8125 28.1875 C-30.544375 27.465625 -30.27625 26.74375 -30 26 C-28.68 26.33 -27.36 26.66 -26 27 C-26 24.69 -26 22.38 -26 20 C-27.65 20.33 -29.3 20.66 -31 21 C-31.49661226 17.85478899 -31.7537661 16.02568083 -31 13 C-24.40021183 5.18865651 -10.28747779 -1.73872864 0 0 Z " fill="#F8F9FB" transform="translate(294,229)"/>
<path d="M0 0 C2.03760201 4.96665491 2.94561139 9.69355939 2 15 C0.58187061 17.69790469 -1.00524931 19.65616794 -3 22 C-2.67 22.66 -2.34 23.32 -2 24 C-2.99 24 -3.98 24 -5 24 C-5.33 26.97 -5.66 29.94 -6 33 C-8.64 33.99 -11.28 34.98 -14 36 C-14.33 38.64 -14.66 41.28 -15 44 C-16.98 44.495 -16.98 44.495 -19 45 C-19.66 48.3 -20.32 51.6 -21 55 C-22.32 55 -23.64 55 -25 55 C-25.93376437 51.57133397 -26.37592999 48.54723681 -26 45 C-24.21426562 42.07637906 -22.21966647 39.72626343 -19.8828125 37.2265625 C-18.02788884 35.03298058 -17.18721556 33.85050782 -17 31 C-18.89586384 28.85410577 -18.89586384 28.85410577 -21 27 C-21 26.34 -21 25.68 -21 25 C-20.3503125 24.77570312 -19.700625 24.55140625 -19.03125 24.3203125 C-18.3609375 23.88460937 -17.690625 23.44890625 -17 23 C-16.44307593 20.6159743 -16.44307593 20.6159743 -16.5 17.875 C-16.16052893 11.71602482 -14.60867626 7.02465436 -10.5546875 2.32421875 C-7.59106982 -0.20006867 -3.74294499 0 0 0 Z " fill="#F3F3F8" transform="translate(333,25)"/>
<path d="M0 0 C2.95839355 -0.02689449 5.91654427 -0.04678741 8.875 -0.0625 C9.71675781 -0.07087891 10.55851562 -0.07925781 11.42578125 -0.08789062 C12.23144531 -0.09111328 13.03710938 -0.09433594 13.8671875 -0.09765625 C14.98262939 -0.10551147 14.98262939 -0.10551147 16.12060547 -0.11352539 C18 0 18 0 20 1 C21.69460324 1.04910312 23.39120585 1.03663851 25.0859375 0.9921875 C26.09914063 0.97542969 27.11234375 0.95867187 28.15625 0.94140625 C30.29445012 0.8972929 32.43250227 0.84526583 34.5703125 0.78515625 C36.09398437 0.76388672 36.09398437 0.76388672 37.6484375 0.7421875 C38.57833496 0.7201123 39.50823242 0.69803711 40.46630859 0.67529297 C43.49764276 1.06377576 44.83973448 1.86221773 47 4 C47.51020728 8.08165827 47.31361802 9.52957297 45 13 C41.62496331 11.8141763 39.35277269 10.72426311 37 8 C37.66 9.65 38.32 11.3 39 13 C34.66718453 13.17543584 30.33529136 13.28123984 26 13.375 C24.77925781 13.42527344 23.55851562 13.47554687 22.30078125 13.52734375 C15.50797545 13.63749736 10.74904772 13.4288031 5.5546875 8.78759766 C3.16562879 6.04063034 1.5751802 3.28162541 0 0 Z " fill="#6773A9" transform="translate(312,159)"/>
<path d="M0 0 C33.66 0 67.32 0 102 0 C102 1.32 102 2.64 102 4 C68.34 4 34.68 4 0 4 C0 2.68 0 1.36 0 0 Z " fill="#F2F3F7" transform="translate(307,371)"/>
<path d="M0 0 C33.33 0 66.66 0 101 0 C101 1.32 101 2.64 101 4 C67.67 4 34.34 4 0 4 C0 2.68 0 1.36 0 0 Z " fill="#F2F3F8" transform="translate(193,371)"/>
<path d="M0 0 C25.74 0 51.48 0 78 0 C78 1.65 78 3.3 78 5 C52.26 5 26.52 5 0 5 C0 3.35 0 1.7 0 0 Z " fill="#475596" transform="translate(261,280)"/>
<path d="M0 0 C2.69105198 2.17574416 4.45532928 3.91065856 6 7 C6.34708476 12.29304255 6.51351894 15.73358414 3 20 C-0.21522137 22.32826375 -3.10830425 22.39711181 -7 22 C-10.80574349 20.2701166 -12.43910121 18.83318064 -14 15 C-14.7099797 10.38513192 -14.62455021 6.99928034 -12.125 3 C-8.49799372 -0.41365296 -4.84659926 -0.85418991 0 0 Z " fill="#F6F7FA" transform="translate(328,543)"/>
<path d="M0 0 C11.4894526 -0.3706275 11.4894526 -0.3706275 13.8671875 1.35546875 C15.47036103 3.68283446 15.34576265 5.23389878 15 8 C14.01 9.485 14.01 9.485 13 11 C13.66 11 14.32 11 15 11 C16.33901122 17.4515995 16.33901122 17.4515995 14.9375 19.71875 C10.79337152 22.45922206 4.71631106 21.14008845 0 21 C0 14.07 0 7.14 0 0 Z " fill="#6470A7" transform="translate(293,543)"/>
<path d="M0 0 C6.93857783 0.11963065 6.93857783 0.11963065 9.83203125 2.51953125 C13.18279732 6.39207111 14.83692466 9.20617131 15.3125 14.4375 C15 18 15 18 13.4375 20.4375 C10.01685857 22.63021887 7.99048721 22.63007693 4 22 C0.7293457 19.31079536 -2.67096877 16.28185295 -3.30078125 11.9140625 C-3.32551243 7.08323953 -3.0753663 3.97234814 0 0 Z " fill="#3D4D91" transform="translate(270,25)"/>
<path d="M0 0 C1.85982144 2.86126375 2.31159026 5.11700485 2.15234375 8.53125 C1.16473964 12.21830534 -1.24436853 13.47429729 -4.375 15.5 C-8.7850813 16.9700271 -13.34688116 17.41036877 -17.62890625 15.48828125 C-18.20511719 15.16214844 -18.78132812 14.83601563 -19.375 14.5 C-19.18086319 10.0445602 -18.93798109 6.48000412 -16.6875 2.5625 C-12.07859906 -1.54814138 -5.47353454 -3.45696918 0 0 Z " fill="#3F4E92" transform="translate(233.375,98.5)"/>
<path d="M0 0 C3.25 1.875 3.25 1.875 6 4 C6.61875 4.4125 7.2375 4.825 7.875 5.25 C9.81591825 8.26920616 9.17264965 11.48945702 9 15 C5.60595448 17.06953995 3.51634404 18.00922043 -0.5 17.9375 C-5.25092294 16.66493136 -8.54185195 14.45814805 -12 11 C-12.3397122 7.99112055 -12.54965117 5.90284527 -12 3 C-8.34906499 -1.53601016 -5.41698455 -1.52055707 0 0 Z " fill="#405092" transform="translate(380,97)"/>
<path d="M0 0 C0.98484375 0.02707031 1.9696875 0.05414063 2.984375 0.08203125 C3.73203125 0.11683594 4.4796875 0.15164062 5.25 0.1875 C6.95733428 9.68771652 6.95733428 9.68771652 5.30859375 13.18359375 C2.28378444 16.80433564 -0.45450534 19.06972776 -5.1875 19.5 C-8.75 19.1875 -8.75 19.1875 -11.125 18.125 C-13.59618784 15.17858373 -13.75 12.9938221 -13.75 9.1875 C-10.44788737 2.82787568 -7.24512597 -0.2587545 0 0 Z " fill="#3F4E92" transform="translate(364.75,49.8125)"/>
<path d="M0 0 C2.04472757 4.98402344 2.81589232 9.67212487 2 15 C-0.05838525 18.33600367 -1.7393264 19.8262176 -5 22 C-8.502304 22.44710264 -10.33244416 22.40404695 -13.375 20.5625 C-15.821584 16.70442523 -15.95654731 13.43490115 -15 9 C-13.44640114 5.82895576 -11.64179664 3.34826368 -9 1 C-5.74103338 -0.0224209 -3.38549649 0 0 0 Z " fill="#3E4D91" transform="translate(333,25)"/>
<path d="M0 0 C6.06292614 -0.41813284 9.19707988 -0.13274522 14 4 C16.3858046 6.92453467 17.01480637 8.27448772 16.9375 12.0625 C15.83287356 15.52366286 15.00342896 16.94502229 12 19 C8.5625 19.5625 8.5625 19.5625 5 19 C1.50511477 16.21997765 -1.23516318 13.11795258 -3 9 C-2.6875 5.1875 -2.6875 5.1875 -2 2 C-1.34 2 -0.68 2 0 2 C0 1.34 0 0.68 0 0 Z " fill="#404F92" transform="translate(235,51)"/>
<path d="M0 0 C3.91691823 0.14181864 5.76921284 0.76333639 8.81762695 3.25341797 C11.04282354 6.03491371 13.00033802 8.85394104 14.89575195 11.86669922 C15.55575195 12.52669922 16.21575195 13.18669922 16.89575195 13.86669922 C12.81265775 13.98284851 8.72998818 14.05393379 4.64575195 14.11669922 C3.48688477 14.15021484 2.32801758 14.18373047 1.1340332 14.21826172 C0.01899414 14.23115234 -1.09604492 14.24404297 -2.24487305 14.25732422 C-3.27128906 14.27827148 -4.29770508 14.29921875 -5.35522461 14.32080078 C-8.84206371 13.74482203 -10.02456599 12.68332567 -12.10424805 9.86669922 C-11.79206767 0.81346818 -8.34084709 0.22141194 0 0 Z " fill="#FAFBFC" transform="translate(251.104248046875,159.13330078125)"/>
<path d="M0 0 C5.61 0 11.22 0 17 0 C17 0.99 17 1.98 17 3 C13.7 3 10.4 3 7 3 C7 4.98 7 6.96 7 9 C10.3 9 13.6 9 17 9 C17 9.99 17 10.98 17 12 C13.7 12 10.4 12 7 12 C7 14.31 7 16.62 7 19 C10.63 19 14.26 19 18 19 C18 19.66 18 20.32 18 21 C13.38 21 8.76 21 4 21 C4 19.02 4 17.04 4 15 C1.36 15 -1.28 15 -4 15 C-4.66 16.98 -5.32 18.96 -6 21 C-6.99 21 -7.98 21 -9 21 C-7.50646132 16.15731399 -5.54903216 11.6859278 -3.375 7.125 C-2.26125 4.77375 -1.1475 2.4225 0 0 Z " fill="#485797" transform="translate(389,505)"/>
<path d="M0 0 C1.8975 -0.061875 3.795 -0.12375 5.75 -0.1875 C7.35101563 -0.23970703 7.35101563 -0.23970703 8.984375 -0.29296875 C12.33229616 0.03228266 13.67251707 0.60537814 16 3 C16.25 5.9375 16.25 5.9375 16 9 C16 10.32 16 11.64 16 13 C16 15.66666667 16 18.33333333 16 21 C15.01 21 14.02 21 13 21 C12.855625 19.865625 12.71125 18.73125 12.5625 17.5625 C12.38828522 14.19222799 12.38828522 14.19222799 11 13 C9.65252916 12.76924918 8.29622435 12.58846937 6.9375 12.4375 C5.638125 12.293125 4.33875 12.14875 3 12 C3 14.97 3 17.94 3 21 C2.01 21 1.02 21 0 21 C0 14.07 0 7.14 0 0 Z " fill="#6E7AAD" transform="translate(339,543)"/>
<path d="M0 0 C1.8975 -0.061875 3.795 -0.12375 5.75 -0.1875 C7.35101563 -0.23970703 7.35101563 -0.23970703 8.984375 -0.29296875 C12.33660552 0.03270131 13.66963008 0.60272951 16 3 C16.375 6.0625 16.375 6.0625 16 9 C15.34 9.66 14.68 10.32 14 11 C14.99 12.485 14.99 12.485 16 14 C16.07905064 16.33199388 16.08798769 18.66832622 16 21 C15.01 21 14.02 21 13 21 C12.855625 19.865625 12.71125 18.73125 12.5625 17.5625 C12.38828522 14.19222799 12.38828522 14.19222799 11 13 C9.65252916 12.76924918 8.29622435 12.58846937 6.9375 12.4375 C5.638125 12.293125 4.33875 12.14875 3 12 C3 14.97 3 17.94 3 21 C2.01 21 1.02 21 0 21 C0 14.07 0 7.14 0 0 Z " fill="#4C5A99" transform="translate(271,543)"/>
<path d="M0 0 C3.79160297 -0.05786668 7.58309311 -0.09355054 11.375 -0.125 C12.45523437 -0.14175781 13.53546875 -0.15851563 14.6484375 -0.17578125 C15.6796875 -0.18222656 16.7109375 -0.18867188 17.7734375 -0.1953125 C19.20308838 -0.21102295 19.20308838 -0.21102295 20.66162109 -0.22705078 C23 0 23 0 25 2 C25.34490322 6.05261287 25.30163882 7.54754176 23 11 C19.62496331 9.8141763 17.35277269 8.72426311 15 6 C15.66 7.65 16.32 9.3 17 11 C9.85281647 11.48455482 9.85281647 11.48455482 6.25 9.4375 C3.53472404 6.49595104 1.94258284 3.49746532 0 0 Z " fill="#3B4B90" transform="translate(334,161)"/>
<path d="M0 0 C3 0.5625 3 0.5625 5.375 2.0625 C7.62874482 5.52979973 7.62763505 8.60055375 7 12.5625 C5.9375 15.5625 5.9375 15.5625 4 17.5625 C0.41338965 18.07487291 -1.87803432 18.38527483 -4.875 16.1875 C-7.36208713 12.59504081 -7.36866531 9.91275066 -7 5.5625 C-5.01529365 1.9747616 -4.06692899 0.76254919 0 0 Z " fill="#F7F8FA" transform="translate(438,506.4375)"/>
<path d="M0 0 C8.91 0 17.82 0 27 0 C18.36585366 10.07317073 18.36585366 10.07317073 15 13 C11.77730689 13 10.63709218 11.67966796 8.203125 9.53125 C7.21094981 8.52849161 6.22676054 7.51777936 5.25 6.5 C4.74339844 5.98824219 4.23679688 5.47648437 3.71484375 4.94921875 C0 1.15427055 0 1.15427055 0 0 Z " fill="#F1F2F7" transform="translate(135,465)"/>
<path d="M0 0 C8.58 0 17.16 0 26 0 C22.04354855 4.61586002 18.30058488 8.80181 14 13 C10.12060491 11.41379873 7.66638913 8.90079013 4.75 5.9375 C3.85796875 5.03902344 2.9659375 4.14054687 2.046875 3.21484375 C0 1 0 1 0 0 Z " fill="#F6F7FA" transform="translate(439,465)"/>
<path d="M0 0 C1.87988281 0.25219727 1.87988281 0.25219727 4 1 C5.09667969 2.73413086 5.09667969 2.73413086 5.921875 4.96484375 C6.22480469 5.76470703 6.52773438 6.56457031 6.83984375 7.38867188 C7.14019531 8.22978516 7.44054687 9.07089844 7.75 9.9375 C8.22373047 11.19336914 8.22373047 11.19336914 8.70703125 12.47460938 C11 18.6437872 11 18.6437872 11 21 C10.01 21 9.02 21 8 21 C7.67 19.35 7.34 17.7 7 16 C3.7 16 0.4 16 -3 16 C-3.33 17.65 -3.66 19.3 -4 21 C-4.99 21 -5.98 21 -7 21 C-6.38169051 15.97525707 -4.87023224 11.75279506 -2.9375 7.125 C-2.65583984 6.43664062 -2.37417969 5.74828125 -2.08398438 5.0390625 C-1.39484734 3.35710091 -0.69819202 1.67822303 0 0 Z " fill="#4E5C9A" transform="translate(256,543)"/>
<path d="M0 0 C2.8100346 1.79363911 4.50940468 3.01880935 6 6 C6.43808718 10.28819956 6.44926618 13.94422448 4.75 17.9375 C2.07084236 21.09507865 0.19008777 21.81889969 -3.875 22.4375 C-8.2682371 21.82244681 -9.84565969 20.08098355 -13 17 C-14.60540839 13.78918322 -14.48463309 10.48289645 -14 7 C-10.46338252 0.51620128 -7.35084438 -1.0561558 0 0 Z M-9.375 4.0625 C-11.38479855 7.69559738 -11.44725121 9.9001972 -11 14 C-9.98263229 16.76142665 -9.63829259 17.68085371 -7 19 C-3.54213985 19.50007794 -3.54213985 19.50007794 0 19 C2.67579911 16.23788479 3.21459361 13.66421614 3.4375 9.9375 C3.30497032 6.05970165 3.30497032 6.05970165 1.375 3.5 C-2.75601677 0.89093678 -5.64949283 0.82719114 -9.375 4.0625 Z " fill="#495797" transform="translate(442,505)"/>
<path d="M0 0 C2.69105198 2.17574416 4.45532928 3.91065856 6 7 C6.34708476 12.29304255 6.51351894 15.73358414 3 20 C-0.21522137 22.32826375 -3.10830425 22.39711181 -7 22 C-10.80574349 20.2701166 -12.43910121 18.83318064 -14 15 C-14.7099797 10.38513192 -14.62455021 6.99928034 -12.125 3 C-8.49799372 -0.41365296 -4.84659926 -0.85418991 0 0 Z M-9.375 4.0625 C-11.4040053 7.73031728 -11.51760491 9.85916073 -11 14 C-10.20572041 17.01950153 -10.20572041 17.01950153 -8 19 C-5.20581569 19.66361877 -2.80044003 19.61259626 0 19 C2.20426487 17.61760705 2.20426487 17.61760705 3 15 C3.5180512 10.33753916 3.607419 8.12138893 1.375 4 C-0.8840554 1.77656118 -0.8840554 1.77656118 -4 1.375 C-7.12761767 1.77204255 -7.12761767 1.77204255 -9.375 4.0625 Z " fill="#4F5E9B" transform="translate(328,543)"/>
<path d="M0 0 C4.95 0 9.9 0 15 0 C15 0.99 15 1.98 15 3 C11.04 3 7.08 3 3 3 C3 4.98 3 6.96 3 9 C6.63 9 10.26 9 14 9 C14 9.99 14 10.98 14 12 C10.37 12 6.74 12 3 12 C3 14.31 3 16.62 3 19 C6.96 19 10.92 19 15 19 C15 19.66 15 20.32 15 21 C10.05 21 5.1 21 0 21 C0 14.07 0 7.14 0 0 Z " fill="#4E5C9A" transform="translate(165,505)"/>
<path d="M0 0 C2.39774745 -0.13572155 4.78775245 -0.23436868 7.1875 -0.3125 C8.19780273 -0.3753418 8.19780273 -0.3753418 9.22851562 -0.43945312 C13.14032917 -0.53486321 14.77435614 -0.18349061 17.84375 2.3125 C20.11753114 5.14648809 22.07109136 7.92803439 24 11 C20.81858133 11.46557346 18.74656877 11.50963377 16.04296875 9.6640625 C14.3064392 8.15741976 12.630282 6.62063536 11 5 C10.67 5.33 10.34 5.66 10 6 C11.32 7.65 12.64 9.3 14 11 C10.75023196 11.37140206 9.26606756 11.16223632 6.4375 9.4375 C3.49954288 6.49954288 1.91043949 3.67936495 0 0 Z " fill="#3C4C90" transform="translate(297,161)"/>
<path d="M0 0 C0.99 0 1.98 0 3 0 C3.06058594 1.13179688 3.12117187 2.26359375 3.18359375 3.4296875 C3.26799917 4.91147145 3.35264717 6.3932416 3.4375 7.875 C3.47681641 8.62136719 3.51613281 9.36773438 3.55664062 10.13671875 C3.71573624 14.19986864 3.71573624 14.19986864 5 18 C7.31 18 9.62 18 12 18 C13.585869 14.828262 13.37866445 11.36486178 13.5625 7.875 C13.60568359 7.12089844 13.64886719 6.36679687 13.69335938 5.58984375 C13.7994832 3.72678112 13.90025001 1.86341476 14 0 C14.99 0 15.98 0 17 0 C17.10845031 2.56364483 17.18749744 5.12266279 17.25 7.6875 C17.30027344 8.7693457 17.30027344 8.7693457 17.3515625 9.87304688 C17.42291404 13.77954343 17.27534719 15.56934334 15.109375 18.95703125 C12.57423316 21.41236307 11.63457576 21.93102437 8.125 22.3125 C5 22 5 22 2.6875 20.125 C-0.46720527 16.15240817 -0.11732495 12.75863743 -0.0625 7.875 C-0.05798828 7.12089844 -0.05347656 6.36679687 -0.04882812 5.58984375 C-0.03703499 3.72652873 -0.01909942 1.86325445 0 0 Z " fill="#56649F" transform="translate(198,505)"/>
<path d="M0 0 C2.90426705 -0.34574608 5.11804487 -0.58374009 7.62890625 1.078125 C9.10416255 2.36481471 10.55299573 3.68161833 12 5 C12.99 5.33 13.98 5.66 15 6 C13.68 4.02 12.36 2.04 11 0 C15.8628852 0.41681873 17.86486307 2.36984145 21 6 C22.02055065 7.65416267 23.02416007 9.31907341 24 11 C18.14074203 11.74388698 13.08522484 12.31993132 7.9453125 9.06640625 C1.70860927 3.41721854 1.70860927 3.41721854 0 0 Z " fill="#F2F3F8" transform="translate(278,161)"/>
<path d="M0 0 C1.95803507 -0.05389087 3.91648909 -0.09274217 5.875 -0.125 C7.51082031 -0.15980469 7.51082031 -0.15980469 9.1796875 -0.1953125 C12 0 12 0 14 2 C14.38286803 5.73296326 14.14915785 6.77626323 12 10 C12.66 10 13.32 10 14 10 C15.34146341 16.46341463 15.34146341 16.46341463 13.90625 18.71875 C11.17044815 20.55756764 9.07099634 20.29261279 5.8125 20.1875 C4.72582031 20.16042969 3.63914062 20.13335938 2.51953125 20.10546875 C1.27236328 20.05326172 1.27236328 20.05326172 0 20 C0 16.7 0 13.4 0 10 C0.33 10 0.66 10 1 10 C1 12.64 1 15.28 1 18 C4.63 17.67 8.26 17.34 12 17 C11.34 15.02 10.68 13.04 10 11 C7.69 10.67 5.38 10.34 3 10 C3 9.67 3 9.34 3 9 C5.31 8.34 7.62 7.68 10 7 C10 5.68 10 4.36 10 3 C7.03 2.67 4.06 2.34 1 2 C1 3.98 1 5.96 1 8 C0.67 8 0.34 8 0 8 C0 5.36 0 2.72 0 0 Z " fill="#404F92" transform="translate(294,544)"/>
<path d="M0 0 C0.99 0 1.98 0 3 0 C3.34933594 0.99902344 3.69867188 1.99804688 4.05859375 3.02734375 C4.51807919 4.33078205 4.97772279 5.6341646 5.4375 6.9375 C5.66759766 7.59685547 5.89769531 8.25621094 6.13476562 8.93554688 C7.11964592 12.22328622 7.11964592 12.22328622 9 15 C10.65 10.05 12.3 5.1 14 0 C14.99 0 15.98 0 17 0 C15.55613874 7.21930632 13.42211826 14.05110733 11 21 C9.68 21 8.36 21 7 21 C5.82807565 17.87694627 4.66336124 14.75125261 3.5 11.625 C3.16613281 10.73554687 2.83226562 9.84609375 2.48828125 8.9296875 C2.01455078 7.65351562 2.01455078 7.65351562 1.53125 6.3515625 C1.09135742 5.17327881 1.09135742 5.17327881 0.64257812 3.97119141 C0 2 0 2 0 0 Z " fill="#515F9C" transform="translate(145,505)"/>
<path d="M0 0 C0.99 0.33 1.98 0.66 3 1 C4.16796875 3.6171875 4.16796875 3.6171875 5.1875 6.875 C5.53167969 7.94492187 5.87585938 9.01484375 6.23046875 10.1171875 C7 13 7 13 7 16 C7.66 16 8.32 16 9 16 C9.10957031 15.43152344 9.21914063 14.86304688 9.33203125 14.27734375 C10.37938166 9.17683242 11.79271753 4.715558 14 0 C14.99 0 15.98 0 17 0 C14.96192707 7.1178153 12.59655258 14.06707281 10 21 C8.68 21 7.36 21 6 21 C5.65066406 19.92878906 5.30132812 18.85757813 4.94140625 17.75390625 C4.48192855 16.35671896 4.02228454 14.95958635 3.5625 13.5625 C3.33240234 12.85544922 3.10230469 12.14839844 2.86523438 11.41992188 C1.92578853 7.93693205 1.92578853 7.93693205 0 5 C-0.04063832 3.33382885 -0.042721 1.66611905 0 0 Z " fill="#4C5B99" transform="translate(410,505)"/>
<path d="M0 0 C5.36197975 1.34049494 7.77499321 4.01913796 10.65234375 8.671875 C11.09707031 9.44015625 11.54179687 10.2084375 12 11 C-0.89098663 11.86067418 -0.89098663 11.86067418 -4.625 8.8125 C-6.74994266 6.29612054 -8.49524189 3.92591855 -10 1 C-6.625 1.25 -6.625 1.25 -3 2 C-1.9375 3.9375 -1.9375 3.9375 -1 6 C2.04199472 7.29231642 2.04199472 7.29231642 5 8 C2.525 4.04 2.525 4.04 0 0 Z " fill="#F3F4F8" transform="translate(326,160)"/>
<path d="M0 0 C3.91691823 0.14181864 5.76921284 0.76333639 8.81762695 3.25341797 C11.04282354 6.03491371 13.00033802 8.85394104 14.89575195 11.86669922 C15.55575195 12.52669922 16.21575195 13.18669922 16.89575195 13.86669922 C12.81265775 13.98284851 8.72998818 14.05393379 4.64575195 14.11669922 C3.48688477 14.15021484 2.32801758 14.18373047 1.1340332 14.21826172 C0.01899414 14.23115234 -1.09604492 14.24404297 -2.24487305 14.25732422 C-3.27128906 14.27827148 -4.29770508 14.29921875 -5.35522461 14.32080078 C-8.84206371 13.74482203 -10.02456599 12.68332567 -12.10424805 9.86669922 C-11.79206767 0.81346818 -8.34084709 0.22141194 0 0 Z M-2.10424805 1.86669922 C-1.44424805 3.51669922 -0.78424805 5.16669922 -0.10424805 6.86669922 C-0.76424805 6.86669922 -1.42424805 6.86669922 -2.10424805 6.86669922 C-2.72299805 6.18607422 -3.34174805 5.50544922 -3.97924805 4.80419922 C-4.68049805 4.16482422 -5.38174805 3.52544922 -6.10424805 2.86669922 C-8.32283058 3.00311299 -8.32283058 3.00311299 -10.10424805 3.86669922 C-10.52171413 6.74034712 -10.52171413 6.74034712 -10.10424805 9.86669922 C-5.7499486 13.65915358 -1.23863091 13.22186175 4.20825195 13.05419922 C5.04420898 13.04066406 5.88016602 13.02712891 6.74145508 13.01318359 C8.79316694 12.97801139 10.8445447 12.9242097 12.89575195 12.86669922 C11.99097458 11.40095988 11.07141054 9.94434166 10.14575195 8.49169922 C9.6352832 7.67958984 9.12481445 6.86748047 8.59887695 6.03076172 C6.80006015 3.74510918 5.60194825 2.85467565 2.89575195 1.86669922 C0.22866126 1.69919508 0.22866126 1.69919508 -2.10424805 1.86669922 Z " fill="#5C69A2" transform="translate(251.104248046875,159.13330078125)"/>
<path d="M0 0 C5.61 0 11.22 0 17 0 C17 0.99 17 1.98 17 3 C14.69 3 12.38 3 10 3 C10 8.94 10 14.88 10 21 C9.01 21 8.02 21 7 21 C7 15.06 7 9.12 7 3 C4.69 3 2.38 3 0 3 C0 2.01 0 1.02 0 0 Z " fill="#5966A0" transform="translate(217,505)"/>
<path d="M0 0 C5.61 0 11.22 0 17 0 C17 0.33 17 0.66 17 1 C13.04 1 9.08 1 5 1 C5 4.96 5 8.92 5 13 C2.69 13 0.38 13 -2 13 C-3.25 11 -3.25 11 -4 8 C-2.95863951 5.09599988 -1.55146114 2.69224139 0 0 Z " fill="#5967A1" transform="translate(389,505)"/>
<path d="M0 0 C3.3 0 6.6 0 10 0 C10 0.33 10 0.66 10 1 C7.36 1 4.72 1 2 1 C2 3.64 2 6.28 2 9 C5.3 9 8.6 9 12 9 C12 9.66 12 10.32 12 11 C12.99 11.33 13.98 11.66 15 12 C15 14.64 15 17.28 15 20 C14.01 20 13.02 20 12 20 C11.855625 18.865625 11.71125 17.73125 11.5625 16.5625 C11.38828522 13.19222799 11.38828522 13.19222799 10 12 C8.65252916 11.76924918 7.29622435 11.58846937 5.9375 11.4375 C4.638125 11.293125 3.33875 11.14875 2 11 C2 13.97 2 16.94 2 20 C1.34 20 0.68 20 0 20 C0 13.4 0 6.8 0 0 Z " fill="#3C4C90" transform="translate(340,544)"/>
<path d="M0 0 C1.859375 0.19140625 1.859375 0.19140625 4 1 C5.265625 3.21484375 5.265625 3.21484375 6.25 5.9375 C6.58515625 6.83339844 6.9203125 7.72929688 7.265625 8.65234375 C8 11 8 11 8 13 C4.78548731 14.60725635 1.56387464 14.05748185 -2 14 C-1.84402344 13.30132813 -1.68804687 12.60265625 -1.52734375 11.8828125 C-1.33269531 10.97273437 -1.13804687 10.06265625 -0.9375 9.125 C-0.64166016 7.76761719 -0.64166016 7.76761719 -0.33984375 6.3828125 C0.23202157 3.98985875 0.23202157 3.98985875 -1 2 C-0.67 1.34 -0.34 0.68 0 0 Z " fill="#54629E" transform="translate(256,543)"/>
<path d="M0 0 C0.99 0 1.98 0 3 0 C3 6.27 3 12.54 3 19 C6.3 19 9.6 19 13 19 C13 19.66 13 20.32 13 21 C8.71 21 4.42 21 0 21 C0 14.07 0 7.14 0 0 Z " fill="#404F92" transform="translate(183,505)"/>
<path d="M0 0 C2.6875 -0.3125 2.6875 -0.3125 6 0 C8.57285724 2.172635 10.48996919 3.97993838 12 7 C12.34713404 12.29379413 12.50313108 15.71839535 9 20 C8.01 20.33 7.02 20.66 6 21 C6.50603992 18.83125748 6.99983813 17.00032373 8 15 C8.40352183 9.60293796 8.40352183 9.60293796 6.875 4.5625 C4.36180747 2.46817289 2.20877528 2.28522447 -1 2 C-0.67 1.34 -0.34 0.68 0 0 Z " fill="#475596" transform="translate(322,543)"/>
<path d="M0 0 C1.47906892 -0.02689216 2.95827483 -0.04634621 4.4375 -0.0625 C5.26121094 -0.07410156 6.08492188 -0.08570313 6.93359375 -0.09765625 C9 0 9 0 10 1 C10.125 3.5 10.125 3.5 10 6 C9 7 9 7 6.93359375 7.09765625 C6.10988281 7.08605469 5.28617187 7.07445312 4.4375 7.0625 C3.61121094 7.05347656 2.78492188 7.04445313 1.93359375 7.03515625 C1.29550781 7.02355469 0.65742188 7.01195312 0 7 C0 4.69 0 2.38 0 0 Z " fill="#F6F7FA" transform="translate(342,546)"/>
<path d="M0 0 C1.47906892 -0.02689216 2.95827483 -0.04634621 4.4375 -0.0625 C5.26121094 -0.07410156 6.08492188 -0.08570313 6.93359375 -0.09765625 C9 0 9 0 10 1 C10.04063832 2.66617115 10.042721 4.33388095 10 6 C6.78548731 7.60725635 3.56387464 7.05748185 0 7 C0 4.69 0 2.38 0 0 Z " fill="#F9FAFB" transform="translate(296,555)"/>
<path d="M0 0 C1.47906892 -0.02689216 2.95827483 -0.04634621 4.4375 -0.0625 C5.26121094 -0.07410156 6.08492188 -0.08570313 6.93359375 -0.09765625 C9 0 9 0 10 1 C10.04063832 2.66617115 10.042721 4.33388095 10 6 C6.78548731 7.60725635 3.56387464 7.05748185 0 7 C0 4.69 0 2.38 0 0 Z " fill="#FCFCFD" transform="translate(274,546)"/>
<path d="M0 0 C0.99 0 1.98 0 3 0 C3.10845031 2.56364483 3.18749744 5.12266279 3.25 7.6875 C3.30027344 8.7693457 3.30027344 8.7693457 3.3515625 9.87304688 C3.42217417 13.73903577 3.2405946 15.60177445 1.1875 19 C-1 21 -1 21 -4.25 21.3125 C-5.1575 21.209375 -6.065 21.10625 -7 21 C-6.01 20.34 -5.02 19.68 -4 19 C-2.22795618 17.93847199 -2.22795618 17.93847199 -1 16 C-0.62325482 13.20748417 -0.39808059 10.61220799 -0.3125 7.8125 C-0.27833984 7.06291016 -0.24417969 6.31332031 -0.20898438 5.54101562 C-0.12665706 3.69453162 -0.06164719 1.84729006 0 0 Z " fill="#495797" transform="translate(212,505)"/>
<path d="M0 0 C5.94 0 11.88 0 18 0 C18 0.33 18 0.66 18 1 C12.06 1.495 12.06 1.495 6 2 C6.5053125 2.71027344 7.010625 3.42054688 7.53125 4.15234375 C8.1809375 5.07144531 8.830625 5.99054688 9.5 6.9375 C10.1496875 7.85402344 10.799375 8.77054688 11.46875 9.71484375 C13 12 13 12 13 13 C7.72 13 2.44 13 -3 13 C-3 12.67 -3 12.34 -3 12 C2.94 11.505 2.94 11.505 9 11 C5.51458697 5.32891346 5.51458697 5.32891346 0 2 C0 1.34 0 0.68 0 0 Z " fill="#6976AA" transform="translate(292,160)"/>
<path d="M0 0 C1.16147142 3.48441426 1 6.34133115 1 10 C1.42854995 12.31036915 1.42854995 12.31036915 2 14 C4.31 14.33 6.62 14.66 9 15 C9.33 15.99 9.66 16.98 10 18 C7.08083462 18.34751969 4.86804524 18.53280018 2.30078125 16.95703125 C0.11660035 15.15362765 -1.72206192 13.55587616 -3 11 C-3.46829268 3.62439024 -3.46829268 3.62439024 -1.5 1 C-1.005 0.67 -0.51 0.34 0 0 Z " fill="#55629E" transform="translate(431,509)"/>
<path d="M0 0 C0.7425 0.763125 1.485 1.52625 2.25 2.3125 C6.43268437 6.67665578 6.43268437 6.67665578 12.015625 8.29296875 C13.08296875 8.25816406 14.1503125 8.22335938 15.25 8.1875 C16.32765625 8.16042969 17.4053125 8.13335937 18.515625 8.10546875 C19.33546875 8.07066406 20.1553125 8.03585938 21 8 C20.525625 7.05125 20.05125 6.1025 19.5625 5.125 C18.70833333 3.41666667 17.85416667 1.70833333 17 0 C20.50886032 1.40354413 21.4267148 2.64365823 23 6 C23.99 6.66 24.98 7.32 26 8 C26 8.66 26 9.32 26 10 C7.23051682 11.0828548 7.23051682 11.0828548 1.1171875 5.703125 C0 4 0 4 0 0 Z " fill="#5C69A2" transform="translate(316,162)"/>
<path d="M0 0 C5.53846154 0.49230769 5.53846154 0.49230769 7.875 3.0625 C8.431875 4.0215625 8.431875 4.0215625 9 5 C2.25 9 2.25 9 0 9 C-1.125 3.375 -1.125 3.375 0 0 Z " fill="#ECEDF4" transform="translate(271,29)"/>
<path d="M0 0 C2.64 0 5.28 0 8 0 C8.38218767 1.65614657 8.71395102 3.32457024 9 5 C8 6 8 6 6.15234375 6.09765625 C4.1015625 6.06510417 2.05078125 6.03255208 0 6 C0 4.02 0 2.04 0 0 Z " fill="#FEFEFE" transform="translate(296,546)"/>
<path d="M0 0 C1.95803507 -0.05389087 3.91648909 -0.09274217 5.875 -0.125 C7.51082031 -0.15980469 7.51082031 -0.15980469 9.1796875 -0.1953125 C12 0 12 0 14 2 C14.3125 4.4375 14.3125 4.4375 14 7 C12.5 8.8125 12.5 8.8125 11 10 C10.67 7.69 10.34 5.38 10 3 C7.03 2.67 4.06 2.34 1 2 C1 3.98 1 5.96 1 8 C0.67 8 0.34 8 0 8 C0 5.36 0 2.72 0 0 Z " fill="#495897" transform="translate(294,544)"/>
<path d="M0 0 C0.99 0.33 1.98 0.66 3 1 C4.6875 4.5625 4.6875 4.5625 6 8 C5.67 8.33 5.34 8.66 5 9 C2.66055264 8.71269945 0.3260857 8.38063221 -2 8 C-1.125 1.125 -1.125 1.125 0 0 Z " fill="#E5E8F0" transform="translate(220,103)"/>
<path d="M0 0 C1.3921875 0.3403125 1.3921875 0.3403125 2.8125 0.6875 C2.8125 2.6675 2.8125 4.6475 2.8125 6.6875 C1.8225 7.0175 0.8325 7.3475 -0.1875 7.6875 C-2.4511564 6.28304165 -4.2083685 4.4907087 -6.1875 2.6875 C-4.14987265 -0.14253799 -3.59070275 -0.35202968 0 0 Z " fill="#E9EAF2" transform="translate(364.1875,53.3125)"/>
<path d="M0 0 C0.99 0 1.98 0 3 0 C1.41078475 5.36095277 -0.18972938 10.70843973 -2 16 C-2.99 16 -3.98 16 -5 16 C-3.90301833 10.30860098 -2.45946923 5.25432063 0 0 Z " fill="#54629E" transform="translate(424,505)"/>
<path d="M0 0 C1.32 0 2.64 0 4 0 C6.1519437 3.22791555 6.20086443 4.28400809 6 8 C3.03 7.01 0.06 6.02 -3 5 C-1 1 -1 1 0 0 Z " fill="#E0E3ED" transform="translate(326,29)"/>
<path d="M0 0 C1.32 0.99 2.64 1.98 4 3 C3.67 4.65 3.34 6.3 3 8 C1.02 8.33 -0.96 8.66 -3 9 C-3.33 8.34 -3.66 7.68 -4 7 C-3.22265625 5.2734375 -3.22265625 5.2734375 -2.0625 3.375 C-1.381875 2.26125 -0.70125 1.1475 0 0 Z " fill="#F1F2F7" transform="translate(381,102)"/>
<path d="M0 0 C0.99 0 1.98 0 3 0 C3.67679658 1.725227 4.34102 3.45538939 5 5.1875 C5.37125 6.15042969 5.7425 7.11335937 6.125 8.10546875 C6.97636772 10.92182358 7.17072647 13.08164439 7 16 C6.34 16 5.68 16 5 16 C4.16280617 13.70967689 3.3301071 11.41789043 2.5 9.125 C2.14228516 8.14853516 2.14228516 8.14853516 1.77734375 7.15234375 C0 2.2265625 0 2.2265625 0 0 Z " fill="#445394" transform="translate(145,505)"/>
<path d="M0 0 C0.66 0 1.32 0 2 0 C2 3.3 2 6.6 2 10 C0.02 10 -1.96 10 -4 10 C-3.43697042 6.05879291 -2.3208055 3.2491277 0 0 Z " fill="#EDEEF4" transform="translate(391,508)"/>
<path d="M0 0 C2.00720923 0.28674418 4.0085944 0.61866701 6 1 C6 1.99 6 2.98 6 4 C3.5 6.1875 3.5 6.1875 1 8 C0.34 7.67 -0.32 7.34 -1 7 C-1.04254356 5.00045254 -1.04080783 2.99958364 -1 1 C-0.67 0.67 -0.34 0.34 0 0 Z " fill="#EEF0F5" transform="translate(237,54)"/>
<path d="M0 0 C2 1 2 1 2.6328125 2.84765625 C2.79523438 3.57855469 2.95765625 4.30945313 3.125 5.0625 C3.29257812 5.79597656 3.46015625 6.52945313 3.6328125 7.28515625 C3.75398438 7.85105469 3.87515625 8.41695312 4 9 C2.02 9 0.04 9 -2 9 C-1.125 2.25 -1.125 2.25 0 0 Z " fill="#EDEEF4" transform="translate(257,547)"/>
<path d="M0 0 C1.1875 3.5625 1.1875 3.5625 2 7 C1.01 7 0.02 7 -1 7 C-1.66 5.35 -2.32 3.7 -3 2 C-5.31 1.67 -7.62 1.34 -10 1 C-10 0.67 -10 0.34 -10 0 C-3.375 -1.125 -3.375 -1.125 0 0 Z " fill="#435294" transform="translate(265,557)"/>
<path d="M0 0 C1.8871875 0.061875 1.8871875 0.061875 3.8125 0.125 C3.4825 1.115 3.1525 2.105 2.8125 3.125 C1.45125 3.063125 1.45125 3.063125 0.0625 3 C-3.0657046 3.12031556 -4.57364006 3.5164708 -7.1875 5.125 C-7.1875 4.135 -7.1875 3.145 -7.1875 2.125 C-4.09861478 0.06574319 -3.47814073 -0.1140374 0 0 Z " fill="#425193" transform="translate(438.1875,504.875)"/>
<path d="M0 0 C0.99 0 1.98 0 3 0 C4.4783226 2.95664519 4.06032783 5.74229737 4 9 C3.01 9 2.02 9 1 9 C0.67 6.03 0.34 3.06 0 0 Z " fill="#495797" transform="translate(283,555)"/>
<path d="M0 0 C3.94139078 1.66751148 6.7892812 4.22710649 10 7 C8 8 8 8 5.5625 7.3125 C2.76088081 5.87752432 1.5937006 4.68412733 0 2 C0 1.34 0 0.68 0 0 Z " fill="#7C87B5" transform="translate(279,164)"/>
<path d="M0 0 C4.23269578 1.51167706 5.66268097 4.30552799 8 8 C9.62351109 9.79394446 9.62351109 9.79394446 11 11 C8.12362154 10.64363453 7.10554032 10.11154668 5.078125 7.96875 C4.17320312 6.74671875 4.17320312 6.74671875 3.25 5.5 C2.63640625 4.6853125 2.0228125 3.870625 1.390625 3.03125 C0 1 0 1 0 0 Z " fill="#DEE1EC" transform="translate(258,161)"/>
<path d="M0 0 C3.25543229 0.34879632 4.01873107 1.02133261 6.25 3.5625 C6.8275 4.366875 7.405 5.17125 8 6 C7.67 6.66 7.34 7.32 7 8 C5.35 8 3.7 8 2 8 C2.99 7.34 3.98 6.68 5 6 C3.35 4.02 1.7 2.04 0 0 Z " fill="#D7DAE8" transform="translate(305,165)"/>
<path d="M0 0 C1.75 0.125 1.75 0.125 4 1 C6.25 4.0625 6.25 4.0625 8 7 C5.0280615 5.87548273 2.66559313 4.77706209 0 3 C0 2.01 0 1.02 0 0 Z " fill="#6874A9" transform="translate(287,162)"/>
<path d="M0 0 C0.99 0 1.98 0 3 0 C3.66 2.31 4.32 4.62 5 7 C4.01 7.33 3.02 7.66 2 8 C1.34 5.36 0.68 2.72 0 0 Z " fill="#505E9C" transform="translate(145,505)"/>
<path d="M0 0 C3.50886032 1.40354413 4.4267148 2.64365823 6 6 C6.99 6.66 7.98 7.32 9 8 C8.67 8.66 8.34 9.32 8 10 C4.9144483 8.45722415 3.2873039 7.588973 1.75 4.4375 C1.5025 3.633125 1.255 2.82875 1 2 C0.67 1.34 0.34 0.68 0 0 Z " fill="#959EC3" transform="translate(333,162)"/>
<path d="M0 0 C0.99 0.33 1.98 0.66 3 1 C3.33 2.65 3.66 4.3 4 6 C2.68 5.67 1.36 5.34 0 5 C0 3.35 0 1.7 0 0 Z " fill="#52609D" transform="translate(410,505)"/>
<path d="M0 0 C0.99 0.33 1.98 0.66 3 1 C3 1.66 3 2.32 3 3 C-0.21451269 4.60725635 -3.43612536 4.05748185 -7 4 C-6.67 3.34 -6.34 2.68 -6 2 C-3.03 2.495 -3.03 2.495 0 3 C0 2.01 0 1.02 0 0 Z " fill="#707BAE" transform="translate(261,553)"/>
<path d="M0 0 C1 3 1 3 0 6 C-1.32 6 -2.64 6 -4 6 C-4 5.01 -4 4.02 -4 3 C-3.01 3 -2.02 3 -1 3 C-0.67 2.01 -0.34 1.02 0 0 Z " fill="#3C4B90" transform="translate(420,520)"/>
</svg>
